<svg width="98" height="24" viewBox="0 0 98 24" fill="none" xmlns="http://www.w3.org/2000/svg">
<g clip-path="url(#clip0_129_12307)">
<mask id="path-1-inside-1_129_12307" fill="white">
<path d="M10.9231 0.225C11.3731 -0.075 11.9631 -0.075 12.4231 0.225C13.5731 0.945 14.6831 1.745 15.7331 2.605C15.7331 2.605 16.0231 2.805 16.0331 2.465C16.0031 2.035 16.0331 1.595 16.1031 1.165C16.1483 1.05612 16.2245 0.962955 16.3224 0.897152C16.4202 0.831349 16.5352 0.79582 16.6531 0.795C16.6531 0.795 17.9531 0.855 18.7831 0.965C18.9629 0.986632 19.1301 1.06864 19.2572 1.19761C19.3844 1.32659 19.464 1.49489 19.4831 1.675C19.4831 1.675 20.0131 5.205 20.1331 6.475C20.1331 6.475 20.2331 7.125 21.1731 8.225C21.1731 8.225 23.0931 10.895 23.3131 11.405C23.3131 11.405 23.7531 12.325 22.8031 12.445C22.8031 12.445 21.0531 12.625 20.8831 12.665C20.7707 12.6776 20.6677 12.734 20.5966 12.822C20.5255 12.91 20.4919 13.0224 20.5031 13.135C20.5031 13.135 20.4031 19.275 19.9631 22.215C19.9631 22.215 19.8431 23.385 19.1931 23.365C19.1931 23.365 17.3931 23.305 16.9831 23.315C16.9831 23.315 16.8031 23.315 16.8231 23.075C16.8231 23.075 17.7431 13.505 17.1231 8.675C17.1231 8.675 17.0931 8.045 16.6231 7.905C16.6231 7.905 16.1831 7.735 15.7631 8.285C13.9533 10.8059 12.9619 13.822 12.9231 16.925C12.9231 16.925 12.8731 18.445 13.1031 18.825C13.1031 18.825 13.2531 19.095 14.0031 19.155L14.9331 19.285C14.9331 19.285 15.1131 19.285 15.0931 19.515C15.0931 19.515 14.8831 22.315 14.8131 22.815C14.8131 22.935 14.7931 23.045 14.7531 23.155C14.7531 23.155 14.7131 23.245 14.4231 23.235C14.4231 23.235 10.2731 23.205 9.80309 23.235C9.80309 23.235 9.60309 23.235 9.56309 23.135C9.52309 23.035 9.27309 19.505 9.28309 19.005C9.28309 18.905 9.33309 18.805 9.43309 18.765C9.74922 18.5676 10.0168 18.3014 10.2159 17.9863C10.415 17.6712 10.5405 17.3153 10.5831 16.945C10.6331 16.405 10.6331 15.875 10.6031 15.345C10.6031 15.345 10.7531 9.945 10.8031 9.085C10.8031 9.085 10.8231 8.795 10.4431 8.745C10.3513 8.72238 10.2543 8.73674 10.1731 8.785C10.093 8.83459 10.0356 8.91356 10.0131 9.005V9.035C10.0131 9.065 9.74309 12.585 9.79309 13.985C9.79309 13.985 9.89309 14.905 9.24309 14.925C9.24309 14.925 8.62309 15.025 8.59309 14.255C8.59309 14.255 8.64309 10.795 8.79309 9.095C8.79309 8.895 8.65309 8.735 8.45309 8.715C8.3566 8.7002 8.25812 8.72311 8.17806 8.77896C8.098 8.83482 8.04251 8.91934 8.02309 9.015V9.055C8.02309 9.055 7.75309 12.355 7.80309 14.095C7.80309 14.095 7.88309 14.945 7.20309 14.915C7.20309 14.915 6.64309 14.975 6.60309 14.225C6.60309 14.225 6.76309 9.505 6.80309 9.135C6.7988 9.04426 6.76215 8.95806 6.69978 8.89202C6.6374 8.82598 6.55344 8.78446 6.46309 8.775H6.42309C6.32687 8.76622 6.23093 8.79443 6.15477 8.85387C6.0786 8.91331 6.02794 8.99954 6.01309 9.095V9.125C6.01309 9.125 5.76309 14.785 5.79309 16.445C5.79309 16.445 5.77309 18.145 7.04309 18.845C7.04309 18.845 7.22309 18.945 7.23309 19.115C7.23309 19.115 7.37309 22.115 7.50309 23.075C7.50309 23.075 7.55309 23.315 7.34309 23.315L4.15309 23.395C3.98741 23.3953 3.82786 23.3323 3.70705 23.219C3.58624 23.1056 3.51328 22.9504 3.50309 22.785C3.08632 19.6089 2.88586 16.4082 2.90309 13.205C2.91624 13.0868 2.88595 12.9679 2.81787 12.8703C2.74979 12.7728 2.64858 12.7034 2.53309 12.675C2.53309 12.675 0.893088 12.525 0.503088 12.435C0.402132 12.4078 0.308807 12.3577 0.23037 12.2885C0.151932 12.2194 0.0904929 12.1331 0.0508288 12.0364C0.0111647 11.9396 -0.00565647 11.835 0.00167286 11.7307C0.00900218 11.6264 0.0402845 11.5252 0.0930884 11.435C2.74865 6.88413 6.46396 3.04188 10.9231 0.235V0.225ZM33.3831 9.105H30.2331C29.2131 9.105 29.2131 9.105 29.0031 10.295C28.7831 11.475 28.7931 11.515 29.7231 11.515H31.5931L30.5331 17.575C30.2731 18.925 29.6831 19.855 27.8531 20.405C27.3831 20.535 27.2531 20.705 27.2531 20.905C27.2931 21.255 27.3931 21.585 27.5531 21.885C27.8531 22.605 28.0231 22.735 28.2731 22.735C28.5731 22.705 28.8731 22.645 29.1731 22.565C31.7731 21.715 32.8331 19.725 33.2531 17.365L34.4531 10.545C34.6531 9.105 34.6531 9.105 33.3831 9.105ZM44.0531 9.105C42.7831 9.105 42.7831 9.105 42.6131 10.165L41.6931 15.665C41.4331 17.275 41.0131 18.205 39.4331 18.205C37.8631 18.205 37.3531 17.275 37.6031 15.835L38.5031 10.585C38.7531 9.105 38.7031 9.105 37.4031 9.105C36.0731 9.105 36.0731 9.105 35.9031 10.125L34.9731 15.625C34.4131 18.755 36.3731 20.695 39.1431 20.695C42.2431 20.695 43.8131 19.305 44.3231 16.005L45.2631 10.545C45.4631 9.105 45.3931 9.105 44.0631 9.105M49.8831 18.125C50.9031 18.075 51.4531 17.615 51.4531 17.155C51.4531 16.555 50.7331 16.355 49.7531 16.055C47.8431 15.455 46.0931 14.785 46.0931 12.755C46.0931 10.335 48.0931 9.025 50.6031 9.025C51.6031 9.025 52.6231 9.065 53.6231 9.155C54.3031 9.235 54.4731 9.455 54.2631 10.505C54.0431 11.565 53.7931 11.645 53.2031 11.605C52.4731 11.565 51.5331 11.475 50.4331 11.475C49.1631 11.475 48.7731 11.945 48.7731 12.375C48.7731 12.915 49.2831 13.215 50.4731 13.555C52.6831 14.185 54.1331 15.075 54.1331 16.985C54.1331 19.225 52.4731 20.535 49.7931 20.615C48.5131 20.665 47.2331 20.595 45.9631 20.415C45.1131 20.285 45.0631 20.285 45.2831 19.055C45.4931 17.955 45.4931 17.875 46.3031 17.955C47.4831 18.105 48.6831 18.155 49.8731 18.125M63.7831 9.105H56.6031C55.5831 9.105 55.5831 9.105 55.3631 10.335C55.1531 11.565 55.2031 11.565 56.0931 11.565H58.4331L57.1131 19.155C56.8531 20.635 56.9031 20.635 58.2131 20.635C59.4531 20.635 59.4931 20.635 59.6631 19.575L61.0231 11.575H63.2831C64.2931 11.575 64.2931 11.575 64.5131 10.355C64.7231 9.125 64.7131 9.125 63.7831 9.125M76.4631 11.535C77.4831 11.535 77.4831 11.535 77.6931 10.305C77.9131 9.085 77.9031 9.085 76.9731 9.085H71.8231C69.9931 9.085 70.0431 9.085 69.7431 10.905L68.4231 18.555C68.0831 20.555 68.1231 20.555 69.9531 20.555H74.9731C76.0431 20.555 75.9931 20.555 76.2131 19.355C76.4131 18.175 76.4131 18.135 75.4831 18.135H71.1531L71.4931 15.935H75.1131C76.0831 15.935 76.0831 15.935 76.2531 14.795C76.4231 13.645 76.4231 13.605 75.1031 13.605H71.9131L72.2631 11.535H76.4631ZM81.8931 15.585L83.5531 11.945C83.6831 11.645 83.6831 11.645 83.8931 11.645C84.1031 11.645 84.1031 11.645 84.1531 11.985L84.6531 15.585H81.8931V15.585ZM86.3931 10.505C86.1531 9.065 86.1531 9.065 84.1031 9.065C82.1931 9.065 82.2331 9.065 81.6331 10.255L77.3331 19.185C76.7031 20.445 76.8331 20.575 78.4031 20.575C79.6431 20.575 79.6431 20.575 80.1531 19.435L80.8231 17.905H84.9931L85.2031 19.435C85.3831 20.575 85.4231 20.575 86.6531 20.575C88.0531 20.575 88.1831 20.495 87.9331 19.095L86.4031 10.505H86.3931ZM96.5731 9.105H89.3531C88.3331 9.105 88.3331 9.105 88.1231 10.335C87.9131 11.565 87.9531 11.565 88.8431 11.565H91.1831L89.8631 19.155C89.6131 20.635 89.6531 20.635 90.9631 20.635C92.2031 20.635 92.2431 20.635 92.4131 19.575L93.7831 11.575H96.0331C97.0531 11.575 97.0531 11.575 97.2631 10.355C97.4731 9.125 97.5231 9.125 96.5831 9.125"/>
</mask>
<path d="M10.9231 0.225C11.3731 -0.075 11.9631 -0.075 12.4231 0.225C13.5731 0.945 14.6831 1.745 15.7331 2.605C15.7331 2.605 16.0231 2.805 16.0331 2.465C16.0031 2.035 16.0331 1.595 16.1031 1.165C16.1483 1.05612 16.2245 0.962955 16.3224 0.897152C16.4202 0.831349 16.5352 0.79582 16.6531 0.795C16.6531 0.795 17.9531 0.855 18.7831 0.965C18.9629 0.986632 19.1301 1.06864 19.2572 1.19761C19.3844 1.32659 19.464 1.49489 19.4831 1.675C19.4831 1.675 20.0131 5.205 20.1331 6.475C20.1331 6.475 20.2331 7.125 21.1731 8.225C21.1731 8.225 23.0931 10.895 23.3131 11.405C23.3131 11.405 23.7531 12.325 22.8031 12.445C22.8031 12.445 21.0531 12.625 20.8831 12.665C20.7707 12.6776 20.6677 12.734 20.5966 12.822C20.5255 12.91 20.4919 13.0224 20.5031 13.135C20.5031 13.135 20.4031 19.275 19.9631 22.215C19.9631 22.215 19.8431 23.385 19.1931 23.365C19.1931 23.365 17.3931 23.305 16.9831 23.315C16.9831 23.315 16.8031 23.315 16.8231 23.075C16.8231 23.075 17.7431 13.505 17.1231 8.675C17.1231 8.675 17.0931 8.045 16.6231 7.905C16.6231 7.905 16.1831 7.735 15.7631 8.285C13.9533 10.8059 12.9619 13.822 12.9231 16.925C12.9231 16.925 12.8731 18.445 13.1031 18.825C13.1031 18.825 13.2531 19.095 14.0031 19.155L14.9331 19.285C14.9331 19.285 15.1131 19.285 15.0931 19.515C15.0931 19.515 14.8831 22.315 14.8131 22.815C14.8131 22.935 14.7931 23.045 14.7531 23.155C14.7531 23.155 14.7131 23.245 14.4231 23.235C14.4231 23.235 10.2731 23.205 9.80309 23.235C9.80309 23.235 9.60309 23.235 9.56309 23.135C9.52309 23.035 9.27309 19.505 9.28309 19.005C9.28309 18.905 9.33309 18.805 9.43309 18.765C9.74922 18.5676 10.0168 18.3014 10.2159 17.9863C10.415 17.6712 10.5405 17.3153 10.5831 16.945C10.6331 16.405 10.6331 15.875 10.6031 15.345C10.6031 15.345 10.7531 9.945 10.8031 9.085C10.8031 9.085 10.8231 8.795 10.4431 8.745C10.3513 8.72238 10.2543 8.73674 10.1731 8.785C10.093 8.83459 10.0356 8.91356 10.0131 9.005V9.035C10.0131 9.065 9.74309 12.585 9.79309 13.985C9.79309 13.985 9.89309 14.905 9.24309 14.925C9.24309 14.925 8.62309 15.025 8.59309 14.255C8.59309 14.255 8.64309 10.795 8.79309 9.095C8.79309 8.895 8.65309 8.735 8.45309 8.715C8.3566 8.7002 8.25812 8.72311 8.17806 8.77896C8.098 8.83482 8.04251 8.91934 8.02309 9.015V9.055C8.02309 9.055 7.75309 12.355 7.80309 14.095C7.80309 14.095 7.88309 14.945 7.20309 14.915C7.20309 14.915 6.64309 14.975 6.60309 14.225C6.60309 14.225 6.76309 9.505 6.80309 9.135C6.7988 9.04426 6.76215 8.95806 6.69978 8.89202C6.6374 8.82598 6.55344 8.78446 6.46309 8.775H6.42309C6.32687 8.76622 6.23093 8.79443 6.15477 8.85387C6.0786 8.91331 6.02794 8.99954 6.01309 9.095V9.125C6.01309 9.125 5.76309 14.785 5.79309 16.445C5.79309 16.445 5.77309 18.145 7.04309 18.845C7.04309 18.845 7.22309 18.945 7.23309 19.115C7.23309 19.115 7.37309 22.115 7.50309 23.075C7.50309 23.075 7.55309 23.315 7.34309 23.315L4.15309 23.395C3.98741 23.3953 3.82786 23.3323 3.70705 23.219C3.58624 23.1056 3.51328 22.9504 3.50309 22.785C3.08632 19.6089 2.88586 16.4082 2.90309 13.205C2.91624 13.0868 2.88595 12.9679 2.81787 12.8703C2.74979 12.7728 2.64858 12.7034 2.53309 12.675C2.53309 12.675 0.893088 12.525 0.503088 12.435C0.402132 12.4078 0.308807 12.3577 0.23037 12.2885C0.151932 12.2194 0.0904929 12.1331 0.0508288 12.0364C0.0111647 11.9396 -0.00565647 11.835 0.00167286 11.7307C0.00900218 11.6264 0.0402845 11.5252 0.0930884 11.435C2.74865 6.88413 6.46396 3.04188 10.9231 0.235V0.225ZM33.3831 9.105H30.2331C29.2131 9.105 29.2131 9.105 29.0031 10.295C28.7831 11.475 28.7931 11.515 29.7231 11.515H31.5931L30.5331 17.575C30.2731 18.925 29.6831 19.855 27.8531 20.405C27.3831 20.535 27.2531 20.705 27.2531 20.905C27.2931 21.255 27.3931 21.585 27.5531 21.885C27.8531 22.605 28.0231 22.735 28.2731 22.735C28.5731 22.705 28.8731 22.645 29.1731 22.565C31.7731 21.715 32.8331 19.725 33.2531 17.365L34.4531 10.545C34.6531 9.105 34.6531 9.105 33.3831 9.105ZM44.0531 9.105C42.7831 9.105 42.7831 9.105 42.6131 10.165L41.6931 15.665C41.4331 17.275 41.0131 18.205 39.4331 18.205C37.8631 18.205 37.3531 17.275 37.6031 15.835L38.5031 10.585C38.7531 9.105 38.7031 9.105 37.4031 9.105C36.0731 9.105 36.0731 9.105 35.9031 10.125L34.9731 15.625C34.4131 18.755 36.3731 20.695 39.1431 20.695C42.2431 20.695 43.8131 19.305 44.3231 16.005L45.2631 10.545C45.4631 9.105 45.3931 9.105 44.0631 9.105M49.8831 18.125C50.9031 18.075 51.4531 17.615 51.4531 17.155C51.4531 16.555 50.7331 16.355 49.7531 16.055C47.8431 15.455 46.0931 14.785 46.0931 12.755C46.0931 10.335 48.0931 9.025 50.6031 9.025C51.6031 9.025 52.6231 9.065 53.6231 9.155C54.3031 9.235 54.4731 9.455 54.2631 10.505C54.0431 11.565 53.7931 11.645 53.2031 11.605C52.4731 11.565 51.5331 11.475 50.4331 11.475C49.1631 11.475 48.7731 11.945 48.7731 12.375C48.7731 12.915 49.2831 13.215 50.4731 13.555C52.6831 14.185 54.1331 15.075 54.1331 16.985C54.1331 19.225 52.4731 20.535 49.7931 20.615C48.5131 20.665 47.2331 20.595 45.9631 20.415C45.1131 20.285 45.0631 20.285 45.2831 19.055C45.4931 17.955 45.4931 17.875 46.3031 17.955C47.4831 18.105 48.6831 18.155 49.8731 18.125M63.7831 9.105H56.6031C55.5831 9.105 55.5831 9.105 55.3631 10.335C55.1531 11.565 55.2031 11.565 56.0931 11.565H58.4331L57.1131 19.155C56.8531 20.635 56.9031 20.635 58.2131 20.635C59.4531 20.635 59.4931 20.635 59.6631 19.575L61.0231 11.575H63.2831C64.2931 11.575 64.2931 11.575 64.5131 10.355C64.7231 9.125 64.7131 9.125 63.7831 9.125M76.4631 11.535C77.4831 11.535 77.4831 11.535 77.6931 10.305C77.9131 9.085 77.9031 9.085 76.9731 9.085H71.8231C69.9931 9.085 70.0431 9.085 69.7431 10.905L68.4231 18.555C68.0831 20.555 68.1231 20.555 69.9531 20.555H74.9731C76.0431 20.555 75.9931 20.555 76.2131 19.355C76.4131 18.175 76.4131 18.135 75.4831 18.135H71.1531L71.4931 15.935H75.1131C76.0831 15.935 76.0831 15.935 76.2531 14.795C76.4231 13.645 76.4231 13.605 75.1031 13.605H71.9131L72.2631 11.535H76.4631ZM81.8931 15.585L83.5531 11.945C83.6831 11.645 83.6831 11.645 83.8931 11.645C84.1031 11.645 84.1031 11.645 84.1531 11.985L84.6531 15.585H81.8931V15.585ZM86.3931 10.505C86.1531 9.065 86.1531 9.065 84.1031 9.065C82.1931 9.065 82.2331 9.065 81.6331 10.255L77.3331 19.185C76.7031 20.445 76.8331 20.575 78.4031 20.575C79.6431 20.575 79.6431 20.575 80.1531 19.435L80.8231 17.905H84.9931L85.2031 19.435C85.3831 20.575 85.4231 20.575 86.6531 20.575C88.0531 20.575 88.1831 20.495 87.9331 19.095L86.4031 10.505H86.3931ZM96.5731 9.105H89.3531C88.3331 9.105 88.3331 9.105 88.1231 10.335C87.9131 11.565 87.9531 11.565 88.8431 11.565H91.1831L89.8631 19.155C89.6131 20.635 89.6531 20.635 90.9631 20.635C92.2031 20.635 92.2431 20.635 92.4131 19.575L93.7831 11.575H96.0331C97.0531 11.575 97.0531 11.575 97.2631 10.355C97.4731 9.125 97.5231 9.125 96.5831 9.125" fill="white"/>
<path d="M10.9231 0.225L10.3684 -0.60705L9.92309 -0.310184V0.225H10.9231ZM12.4231 0.225L11.8768 1.06261L11.8846 1.06767L11.8924 1.07258L12.4231 0.225ZM15.7331 2.605L15.0994 3.37863L15.1314 3.40478L15.1654 3.42821L15.7331 2.605ZM16.0331 2.465L17.0327 2.4944L17.0341 2.44485L17.0307 2.3954L16.0331 2.465ZM16.1031 1.165L15.1795 0.781691L15.1348 0.889315L15.1161 1.00432L16.1031 1.165ZM16.6531 0.795L16.6992 -0.203937L16.6727 -0.20516L16.6461 -0.204976L16.6531 0.795ZM18.7831 0.965L18.6517 1.9564L18.6637 1.95784L18.7831 0.965ZM19.4831 1.675L19.4207 2.67305L20.6022 2.7469L20.4775 1.56966L19.4831 1.675ZM20.1331 6.475L19.1375 6.56907L19.1403 6.59817L19.1447 6.62706L20.1331 6.475ZM21.1731 8.225L21.985 7.64118L21.9605 7.60718L21.9333 7.57535L21.1731 8.225ZM23.3131 11.405L22.3949 11.8011L22.4026 11.8189L22.411 11.8365L23.3131 11.405ZM22.8031 12.445L22.9054 13.4398L22.9169 13.4386L22.9284 13.4371L22.8031 12.445ZM20.8831 12.665L20.9944 13.6588L21.0539 13.6521L21.1121 13.6384L20.8831 12.665ZM20.5031 13.135L21.503 13.1513L21.5039 13.0934L21.4982 13.0358L20.5031 13.135ZM19.9631 22.215L18.9741 22.067L18.9707 22.0899L18.9683 22.113L19.9631 22.215ZM19.1931 23.365L19.1598 24.3644L19.1623 24.3645L19.1931 23.365ZM16.9831 23.315L16.9831 24.315L16.9953 24.315L17.0075 24.3147L16.9831 23.315ZM16.8231 23.075L15.8276 22.9793L15.8265 22.992L16.8231 23.075ZM17.1231 8.675L16.1242 8.72257L16.1261 8.76258L16.1312 8.80232L17.1231 8.675ZM16.6231 7.905L16.2627 8.8378L16.2996 8.85208L16.3376 8.86339L16.6231 7.905ZM15.7631 8.285L14.9683 7.67809L14.9594 7.68982L14.9508 7.70182L15.7631 8.285ZM12.9231 16.925L11.9231 16.9125V16.925H12.9231ZM13.1031 18.825L13.9772 18.3394L13.9682 18.3231L13.9586 18.3072L13.1031 18.825ZM14.0031 19.155L14.1415 18.1646L14.1123 18.1605L14.0828 18.1582L14.0031 19.155ZM14.9331 19.285L14.7947 20.2754L14.8635 20.285L14.9331 20.285L14.9331 19.285ZM15.0931 19.515L14.0968 19.4284L14.0959 19.4402L15.0931 19.515ZM14.8131 22.815L13.8227 22.6764L13.8131 22.7453V22.815H14.8131ZM14.7531 23.155L15.6669 23.5611L15.681 23.5294L15.6929 23.4967L14.7531 23.155ZM14.4231 23.235L14.4576 22.2356L14.4439 22.2351L14.4303 22.235L14.4231 23.235ZM9.80309 23.235L9.80309 24.235L9.83497 24.235L9.86679 24.233L9.80309 23.235ZM9.28309 19.005L10.2829 19.025L10.2831 19.015V19.005H9.28309ZM9.43309 18.765L9.80448 19.6935L9.88723 19.6604L9.96283 19.6132L9.43309 18.765ZM10.5831 16.945L11.5765 17.0593L11.5778 17.0483L11.5788 17.0372L10.5831 16.945ZM10.6031 15.345L9.60347 15.3172L9.6023 15.3594L9.60469 15.4015L10.6031 15.345ZM10.8031 9.085L9.8054 9.0162L9.80477 9.02696L10.8031 9.085ZM10.4431 8.745L10.2037 9.71592L10.2576 9.72921L10.3126 9.73646L10.4431 8.745ZM10.1731 8.785L9.66248 7.92519L9.65445 7.92995L9.64652 7.93487L10.1731 8.785ZM10.0131 9.005L9.04207 8.76598L9.01309 8.88373V9.005H10.0131ZM9.79309 13.985L8.79373 14.0207L8.79502 14.057L8.79894 14.0931L9.79309 13.985ZM9.24309 14.925L9.21233 13.9255L9.1477 13.9275L9.08386 13.9378L9.24309 14.925ZM8.59309 14.255L7.59319 14.2406L7.59281 14.2672L7.59385 14.2939L8.59309 14.255ZM8.79309 9.095L9.78922 9.18289L9.79309 9.13903V9.095H8.79309ZM8.45309 8.715L8.30151 9.70345L8.32746 9.70743L8.35359 9.71004L8.45309 8.715ZM8.02309 9.015L7.04308 8.81603L7.02309 8.91451V9.015H8.02309ZM8.02309 9.055L9.01976 9.13655L9.02309 9.09584V9.055H8.02309ZM7.80309 14.095L6.8035 14.1237L6.80444 14.1563L6.80749 14.1887L7.80309 14.095ZM7.20309 14.915L7.24716 13.916L7.17168 13.9126L7.09655 13.9207L7.20309 14.915ZM6.60309 14.225L5.60366 14.1911L5.60218 14.2347L5.60451 14.2783L6.60309 14.225ZM6.80309 9.135L7.7973 9.24248L7.80564 9.16533L7.80197 9.08781L6.80309 9.135ZM6.46309 8.775L6.56724 7.78044L6.5153 7.775H6.46309V8.775ZM6.42309 8.775L6.33225 9.77087L6.37757 9.775H6.42309V8.775ZM6.01309 9.095L5.02498 8.94124L5.01309 9.01766V9.095H6.01309ZM6.01309 9.125L7.01211 9.16913L7.01309 9.14707V9.125H6.01309ZM5.79309 16.445L6.79302 16.4568L6.79319 16.4418L6.79293 16.4269L5.79309 16.445ZM7.04309 18.845L7.52873 17.9708L7.5258 17.9692L7.04309 18.845ZM7.23309 19.115L8.23207 19.0684L8.23136 19.0563L7.23309 19.115ZM7.50309 23.075L6.51213 23.2092L6.51689 23.2443L6.52411 23.279L7.50309 23.075ZM7.34309 23.315V22.315H7.33055L7.31802 22.3153L7.34309 23.315ZM4.15309 23.395L4.15498 24.395L4.16657 24.395L4.17816 24.3947L4.15309 23.395ZM3.50309 22.785L4.50119 22.7235L4.49907 22.6891L4.49459 22.6549L3.50309 22.785ZM2.90309 13.205L1.90922 13.0944L1.90339 13.1469L1.9031 13.1996L2.90309 13.205ZM2.53309 12.675L2.77186 11.7039L2.69894 11.686L2.62417 11.6792L2.53309 12.675ZM0.503088 12.435L0.242924 13.4006L0.260496 13.4053L0.278229 13.4094L0.503088 12.435ZM0.0930884 11.435L0.956194 11.94L0.956794 11.939L0.0930884 11.435ZM10.9231 0.235L11.4558 1.08129L11.9231 0.787153V0.235H10.9231ZM29.0031 10.295L29.9862 10.4783L29.9879 10.4688L29.0031 10.295ZM31.5931 11.515L32.5781 11.6873L32.7832 10.515H31.5931V11.515ZM30.5331 17.575L31.515 17.7641L31.5167 17.7557L31.5181 17.7473L30.5331 17.575ZM27.8531 20.405L28.1197 21.3688L28.1303 21.3659L28.1409 21.3627L27.8531 20.405ZM27.2531 20.905H26.2531V20.962L26.2596 21.0185L27.2531 20.905ZM27.5531 21.885L28.4762 21.5004L28.4579 21.4564L28.4354 21.4144L27.5531 21.885ZM28.2731 22.735V23.735H28.323L28.3726 23.73L28.2731 22.735ZM29.1731 22.565L29.4308 23.5312L29.4575 23.5241L29.4838 23.5155L29.1731 22.565ZM33.2531 17.365L34.2376 17.5402L34.238 17.5383L33.2531 17.365ZM34.4531 10.545L35.438 10.7183L35.4411 10.7005L35.4436 10.6826L34.4531 10.545ZM42.6131 10.165L43.5994 10.33L43.6005 10.3234L42.6131 10.165ZM41.6931 15.665L40.7068 15.5L40.7059 15.5056L41.6931 15.665ZM37.6031 15.835L38.5884 16.0061L38.5887 16.004L37.6031 15.835ZM38.5031 10.585L39.4887 10.754L39.4891 10.7516L38.5031 10.585ZM35.9031 10.125L36.8891 10.2917L36.8895 10.2894L35.9031 10.125ZM34.9731 15.625L35.9575 15.8011L35.9591 15.7917L34.9731 15.625ZM44.3231 16.005L43.3376 15.8353L43.3361 15.8438L43.3348 15.8523L44.3231 16.005ZM45.2631 10.545L46.2486 10.7147L46.2513 10.6987L46.2536 10.6826L45.2631 10.545ZM49.7531 16.055L49.4534 17.0091L49.4604 17.0112L49.7531 16.055ZM53.6231 9.155L53.7399 8.16185L53.7263 8.16025L53.7127 8.15903L53.6231 9.155ZM54.2631 10.505L55.2422 10.7082L55.2437 10.7011L54.2631 10.505ZM53.2031 11.605L53.2707 10.6072L53.2578 10.6065L53.2031 11.605ZM50.4731 13.555L50.1984 14.5165L50.1989 14.5167L50.4731 13.555ZM49.7931 20.615L49.7632 19.6154L49.7541 19.6158L49.7931 20.615ZM45.9631 20.415L45.8119 21.4036L45.8228 21.4051L45.9631 20.415ZM45.2831 19.055L44.3008 18.8675L44.2987 18.8789L45.2831 19.055ZM46.3031 17.955L46.4292 16.963L46.4153 16.9612L46.4014 16.9598L46.3031 17.955ZM55.3631 10.335L54.3787 10.1589L54.3774 10.1667L55.3631 10.335ZM58.4331 11.565L59.4183 11.7363L59.622 10.565H58.4331V11.565ZM57.1131 19.155L58.098 19.328L58.0983 19.3263L57.1131 19.155ZM59.6631 19.575L58.6772 19.4074L58.6757 19.4166L59.6631 19.575ZM61.0231 11.575V10.575H60.1787L60.0372 11.4074L61.0231 11.575ZM64.5131 10.355L65.4973 10.5325L65.4988 10.5233L64.5131 10.355ZM77.6931 10.305L76.7089 10.1275L76.7073 10.1367L77.6931 10.305ZM69.7431 10.905L70.7286 11.075L70.7298 11.0676L69.7431 10.905ZM68.4231 18.555L67.4376 18.385L67.4372 18.3874L68.4231 18.555ZM76.2131 19.355L77.1968 19.5353L77.199 19.5221L76.2131 19.355ZM71.1531 18.135L70.1648 17.9823L69.9867 19.135H71.1531V18.135ZM71.4931 15.935V14.935H70.6358L70.5048 15.7823L71.4931 15.935ZM76.2531 14.795L77.2422 14.9425L77.2423 14.9412L76.2531 14.795ZM71.9131 13.605L70.9271 13.4383L70.7298 14.605H71.9131V13.605ZM72.2631 11.535V10.535H71.418L71.2771 11.3683L72.2631 11.535ZM83.5531 11.945L84.4629 12.3599L84.4669 12.3513L84.4706 12.3426L83.5531 11.945ZM84.1531 11.985L85.1436 11.8474L85.1424 11.8395L84.1531 11.985ZM84.6531 15.585V16.585H85.8016L85.6436 15.4474L84.6531 15.585ZM86.3931 10.505L85.4067 10.6694L85.546 11.505H86.3931V10.505ZM81.6331 10.255L80.7402 9.80479L80.7361 9.81293L80.7321 9.82115L81.6331 10.255ZM77.3331 19.185L78.2275 19.6322L78.2308 19.6256L78.2341 19.6188L77.3331 19.185ZM80.1531 19.435L81.0659 19.8434L81.0691 19.8361L80.1531 19.435ZM80.8231 17.905V16.905H80.1693L79.9071 17.5039L80.8231 17.905ZM84.9931 17.905L85.9838 17.769L85.8652 16.905H84.9931V17.905ZM85.2031 19.435L84.2124 19.571L84.2137 19.581L84.2153 19.591L85.2031 19.435ZM87.9331 19.095L86.9486 19.2704L86.9487 19.2708L87.9331 19.095ZM86.4031 10.505L87.3876 10.3296L87.2407 9.505H86.4031V10.505ZM91.1831 11.565L92.1683 11.7363L92.372 10.565H91.1831V11.565ZM89.8631 19.155L88.8779 18.9837L88.8771 18.9884L89.8631 19.155ZM92.4131 19.575L91.4274 19.4062L91.4257 19.4166L92.4131 19.575ZM93.7831 11.575V10.575H92.9398L92.7974 11.4062L93.7831 11.575ZM97.2631 10.355L98.2486 10.5246L98.2488 10.5233L97.2631 10.355ZM11.4778 1.05705C11.5883 0.983403 11.7451 0.97671 11.8768 1.06261L12.9694 -0.612611C12.1811 -1.12671 11.1579 -1.1334 10.3684 -0.60705L11.4778 1.05705ZM11.8924 1.07258C13.0056 1.76954 14.0813 2.54471 15.0994 3.37863L16.3667 1.83137C15.2849 0.945291 14.1406 0.120464 12.9538 -0.622584L11.8924 1.07258ZM15.7331 2.605C15.1654 3.42821 15.1657 3.42844 15.166 3.42867C15.1661 3.42874 15.1665 3.42897 15.1667 3.42912C15.1671 3.42943 15.1676 3.42974 15.168 3.43006C15.169 3.43069 15.1699 3.43134 15.1709 3.43201C15.1729 3.43334 15.1749 3.43473 15.1771 3.43619C15.1814 3.4391 15.1862 3.44228 15.1915 3.44567C15.2019 3.45244 15.2142 3.46024 15.2283 3.46875C15.2559 3.48542 15.2929 3.50652 15.3375 3.52842C15.4119 3.56496 15.5714 3.63634 15.7782 3.65737C16.0002 3.67995 16.383 3.64863 16.6948 3.33165C16.9773 3.04459 17.0268 2.69483 17.0327 2.4944L15.0335 2.4356C15.0344 2.40517 15.0439 2.15791 15.2692 1.92898C15.5238 1.67012 15.8322 1.65255 15.9805 1.66763C16.1135 1.68116 16.1999 1.72379 16.2196 1.73345C16.2368 1.74192 16.2512 1.75004 16.2628 1.75711C16.269 1.76081 16.2751 1.76465 16.2812 1.76865C16.2843 1.77067 16.2875 1.77276 16.2907 1.77494C16.2924 1.77603 16.294 1.77714 16.2957 1.77828C16.2965 1.77885 16.2974 1.77943 16.2982 1.78001C16.2987 1.7803 16.2991 1.7806 16.2995 1.78089C16.2997 1.78104 16.3001 1.78127 16.3002 1.78134C16.3005 1.78156 16.3008 1.78179 15.7331 2.605ZM17.0307 2.3954C17.0071 2.057 17.0299 1.69564 17.0901 1.32568L15.1161 1.00432C15.0363 1.49436 14.9991 2.013 15.0355 2.5346L17.0307 2.3954ZM17.0267 1.54831C16.9966 1.6209 16.9457 1.68301 16.8805 1.72687L15.7642 0.0674302C15.5033 0.242902 15.3 0.491328 15.1795 0.781691L17.0267 1.54831ZM16.8805 1.72687C16.8153 1.77074 16.7386 1.79443 16.66 1.79498L16.6461 -0.204976C16.3318 -0.20279 16.025 -0.108045 15.7642 0.0674302L16.8805 1.72687ZM16.6531 0.795C16.607 1.79394 16.607 1.79394 16.6069 1.79393C16.6069 1.79393 16.6069 1.79393 16.6069 1.79393C16.6069 1.79393 16.607 1.79394 16.607 1.79394C16.6071 1.79394 16.6073 1.79395 16.6075 1.79396C16.608 1.79398 16.6088 1.79402 16.6099 1.79407C16.612 1.79417 16.6154 1.79433 16.62 1.79455C16.6291 1.79499 16.6428 1.79566 16.6607 1.79655C16.6965 1.79834 16.749 1.80103 16.8148 1.80461C16.9465 1.81179 17.1306 1.82247 17.3399 1.83651C17.7646 1.86498 18.2704 1.90579 18.6517 1.95633L18.9145 -0.0263319C18.4658 -0.0857917 17.9066 -0.129984 17.4737 -0.159009C17.2543 -0.173724 17.0616 -0.18491 16.9236 -0.192426C16.8545 -0.196188 16.799 -0.19904 16.7604 -0.200963C16.7412 -0.201925 16.7261 -0.202655 16.7158 -0.203151C16.7106 -0.2034 16.7066 -0.203589 16.7038 -0.20372C16.7024 -0.203786 16.7013 -0.203836 16.7006 -0.203872C16.7002 -0.203891 16.6999 -0.203905 16.6996 -0.203916C16.6995 -0.203921 16.6994 -0.203925 16.6994 -0.203929C16.6993 -0.203931 16.6993 -0.203932 16.6993 -0.203933C16.6992 -0.203935 16.6992 -0.203937 16.6531 0.795ZM18.6637 1.95784C18.6187 1.95243 18.5769 1.93193 18.5451 1.89969L19.9693 0.49554C19.6832 0.20535 19.3071 0.0208296 18.9025 -0.0278419L18.6637 1.95784ZM18.5451 1.89969C18.5133 1.86745 18.4934 1.82537 18.4887 1.78034L20.4775 1.56966C20.4346 1.16441 20.2554 0.785729 19.9693 0.49554L18.5451 1.89969ZM19.4831 1.675C18.4942 1.82348 18.4942 1.82348 18.4942 1.8235C18.4942 1.82352 18.4942 1.82355 18.4942 1.8236C18.4942 1.8237 18.4942 1.82384 18.4943 1.82404C18.4943 1.82445 18.4944 1.82506 18.4945 1.82589C18.4948 1.82754 18.4952 1.83003 18.4957 1.83333C18.4966 1.83994 18.4981 1.84982 18.5001 1.86279C18.5039 1.88873 18.5097 1.92704 18.517 1.97629C18.5316 2.0748 18.5527 2.21708 18.5784 2.39184C18.6298 2.74144 18.6995 3.22058 18.773 3.73901C18.9212 4.78571 19.0801 5.9616 19.1375 6.56907L21.1287 6.38093C21.0661 5.7184 20.8999 4.49429 20.7532 3.45849C20.6791 2.93567 20.6089 2.45293 20.5571 2.10098C20.5313 1.92495 20.51 1.78153 20.4952 1.68203C20.4878 1.63228 20.482 1.5935 20.4781 1.56711C20.4761 1.55392 20.4746 1.54382 20.4736 1.537C20.4731 1.53359 20.4727 1.53099 20.4724 1.52924C20.4723 1.52836 20.4722 1.5277 20.4721 1.52724C20.4721 1.52702 20.4721 1.52684 20.472 1.52672C20.472 1.52666 20.472 1.52661 20.472 1.52658C20.472 1.52655 20.472 1.52652 19.4831 1.675ZM20.1331 6.475C19.1447 6.62706 19.1448 6.62762 19.1449 6.62818C19.1449 6.62837 19.145 6.62894 19.1451 6.62932C19.1452 6.63009 19.1453 6.63086 19.1454 6.63165C19.1457 6.63322 19.1459 6.63483 19.1462 6.63648C19.1467 6.63978 19.1473 6.64324 19.148 6.64685C19.1492 6.65408 19.1506 6.66194 19.1522 6.67042C19.1555 6.68739 19.1595 6.70683 19.1645 6.72868C19.1746 6.77241 19.1885 6.82569 19.2077 6.8881C19.2462 7.01305 19.3057 7.17366 19.3973 7.36656C19.5808 7.75279 19.8907 8.26365 20.4129 8.87465L21.9333 7.57535C21.5155 7.08635 21.3054 6.72221 21.2039 6.50844C21.153 6.40134 21.1287 6.3307 21.1191 6.2994C21.1143 6.28368 21.113 6.27759 21.1139 6.28148C21.1143 6.28341 21.1153 6.28781 21.1166 6.29471C21.1173 6.29816 21.118 6.30224 21.1189 6.30694C21.1193 6.3093 21.1197 6.31181 21.1201 6.31447C21.1203 6.31581 21.1206 6.31718 21.1208 6.31859C21.1209 6.3193 21.121 6.32001 21.1211 6.32074C21.1212 6.3211 21.1213 6.32165 21.1213 6.32183C21.1214 6.32239 21.1215 6.32294 20.1331 6.475ZM21.1731 8.225C20.3612 8.80882 20.3612 8.80882 20.3612 8.80883C20.3612 8.80884 20.3612 8.80886 20.3613 8.80889C20.3613 8.80895 20.3614 8.80905 20.3615 8.8092C20.3617 8.80948 20.362 8.80993 20.3624 8.81053C20.3633 8.81174 20.3646 8.81357 20.3664 8.81603C20.3699 8.82093 20.3752 8.82829 20.3821 8.83796C20.396 8.8573 20.4165 8.88586 20.4426 8.92247C20.495 8.9957 20.5702 9.10108 20.6612 9.2292C20.8434 9.48565 21.088 9.83221 21.3391 10.1939C21.5908 10.5567 21.8456 10.9298 22.0494 11.2409C22.1515 11.3968 22.2372 11.5316 22.3019 11.6388C22.3747 11.7594 22.3969 11.8058 22.3949 11.8011L24.2313 11.0089C24.1347 10.7851 23.9181 10.4437 23.7224 10.145C23.5043 9.81205 23.2379 9.42208 22.9821 9.05359C22.7257 8.68405 22.4766 8.33122 22.2918 8.07111C22.1994 7.94095 22.1229 7.83375 22.0694 7.75898C22.0426 7.72158 22.0216 7.69229 22.0073 7.67226C22.0001 7.66225 21.9946 7.65455 21.9908 7.64932C21.9889 7.64671 21.9875 7.64471 21.9865 7.64335C21.986 7.64266 21.9857 7.64214 21.9854 7.64178C21.9853 7.6416 21.9852 7.64146 21.9851 7.64136C21.9851 7.64131 21.985 7.64126 21.985 7.64124C21.985 7.6412 21.985 7.64118 21.1731 8.225ZM23.3131 11.405C22.411 11.8365 22.4108 11.8361 22.4106 11.8357C22.4105 11.8356 22.4103 11.8352 22.4102 11.8349C22.41 11.8344 22.4098 11.8339 22.4095 11.8335C22.4091 11.8325 22.4086 11.8316 22.4082 11.8307C22.4074 11.829 22.4067 11.8274 22.4061 11.826C22.4048 11.8232 22.4038 11.8211 22.4031 11.8196C22.4018 11.8165 22.4015 11.8157 22.4019 11.8168C22.4029 11.8193 22.4059 11.8271 22.4091 11.8377C22.4182 11.8682 22.414 11.871 22.415 11.8443C22.4162 11.8104 22.4301 11.6859 22.5386 11.5648C22.6497 11.4406 22.7488 11.4439 22.6778 11.4529L22.9284 13.4371C23.3324 13.3861 23.7327 13.2294 24.0285 12.899C24.3217 12.5716 24.4037 12.1946 24.4137 11.9157C24.4234 11.644 24.3686 11.4093 24.3249 11.2636C24.3017 11.186 24.2777 11.121 24.2584 11.0728C24.2486 11.0484 24.2398 11.0277 24.2325 11.0112C24.2288 11.0029 24.2255 10.9955 24.2226 10.9893C24.2211 10.9861 24.2198 10.9832 24.2186 10.9806C24.218 10.9793 24.2174 10.9781 24.2168 10.9769C24.2165 10.9763 24.2163 10.9757 24.216 10.9752C24.2159 10.9749 24.2157 10.9745 24.2156 10.9743C24.2154 10.9739 24.2152 10.9735 23.3131 11.405ZM22.8031 12.445C22.7008 11.4502 22.7008 11.4503 22.7007 11.4503C22.7007 11.4503 22.7007 11.4503 22.7007 11.4503C22.7006 11.4503 22.7005 11.4503 22.7004 11.4503C22.7002 11.4503 22.6998 11.4503 22.6994 11.4504C22.6985 11.4505 22.6972 11.4506 22.6955 11.4508C22.6922 11.4511 22.6872 11.4517 22.6807 11.4523C22.6676 11.4537 22.6486 11.4556 22.6243 11.4582C22.5758 11.4632 22.5064 11.4704 22.4226 11.4792C22.2551 11.4968 22.0296 11.5207 21.7985 11.5459C21.568 11.571 21.3292 11.5977 21.136 11.6208C20.9817 11.6393 20.7661 11.6652 20.654 11.6916L21.1121 13.6384C21.0851 13.6448 21.152 13.6332 21.3737 13.6067C21.5564 13.5848 21.787 13.559 22.0152 13.5341C22.2428 13.5093 22.4655 13.4857 22.6314 13.4683C22.7143 13.4596 22.7829 13.4524 22.8308 13.4475C22.8547 13.445 22.8734 13.4431 22.8861 13.4417C22.8925 13.4411 22.8973 13.4406 22.9006 13.4402C22.9022 13.4401 22.9034 13.44 22.9042 13.4399C22.9046 13.4398 22.9049 13.4398 22.9051 13.4398C22.9052 13.4398 22.9053 13.4398 22.9054 13.4398C22.9054 13.4398 22.9054 13.4398 22.9054 13.4398C22.9054 13.4398 22.9054 13.4398 22.8031 12.445ZM20.7717 11.6712C20.3978 11.7131 20.0555 11.9007 19.819 12.1933L21.3742 13.4507C21.2799 13.5673 21.1435 13.6421 20.9944 13.6588L20.7717 11.6712ZM19.819 12.1933C19.5824 12.4858 19.4707 12.8599 19.508 13.2342L21.4982 13.0358C21.513 13.185 21.4685 13.3341 21.3742 13.4507L19.819 12.1933ZM20.5031 13.135C19.5032 13.1187 19.5032 13.1187 19.5032 13.1187C19.5032 13.1188 19.5032 13.1188 19.5032 13.1189C19.5032 13.119 19.5032 13.1193 19.5032 13.1196C19.5032 13.1202 19.5032 13.1213 19.5032 13.1227C19.5031 13.1255 19.503 13.1297 19.5029 13.1354C19.5027 13.1468 19.5024 13.1638 19.502 13.1863C19.5012 13.2313 19.4999 13.2979 19.4981 13.3839C19.4946 13.5559 19.489 13.8054 19.4809 14.1142C19.4648 14.7319 19.4387 15.5858 19.399 16.5305C19.3189 18.4355 19.1852 20.6562 18.9741 22.067L20.9521 22.363C21.1809 20.8338 21.3173 18.5145 21.3972 16.6145C21.4375 15.6567 21.4639 14.7918 21.4802 14.1664C21.4884 13.8537 21.4941 13.6005 21.4977 13.4253C21.4995 13.3376 21.5008 13.2695 21.5017 13.2231C21.5021 13.1998 21.5024 13.1821 21.5026 13.17C21.5027 13.164 21.5028 13.1594 21.5029 13.1563C21.5029 13.1547 21.5029 13.1535 21.5029 13.1527C21.5029 13.1522 21.5029 13.1519 21.5029 13.1517C21.503 13.1516 21.503 13.1515 21.503 13.1514C21.503 13.1513 21.503 13.1513 20.5031 13.135ZM19.9631 22.215C18.9683 22.113 18.9683 22.1127 18.9684 22.1124C18.9684 22.1124 18.9684 22.1121 18.9684 22.1119C18.9684 22.1116 18.9685 22.1113 18.9685 22.111C18.9686 22.1104 18.9686 22.1099 18.9687 22.1095C18.9688 22.1086 18.9688 22.1079 18.9689 22.1075C18.969 22.1067 18.969 22.1068 18.9688 22.1079C18.9686 22.11 18.9679 22.1156 18.9667 22.1242C18.9642 22.1417 18.9597 22.1701 18.9528 22.2054C18.9381 22.2803 18.9164 22.3659 18.8882 22.4393C18.856 22.5231 18.839 22.5295 18.8664 22.501C18.914 22.4515 19.0437 22.3599 19.2238 22.3655L19.1623 24.3645C19.6675 24.3801 20.0559 24.1498 20.3088 23.8865C20.5415 23.6442 20.6764 23.3619 20.7555 23.1557C20.8386 22.9391 20.8874 22.7334 20.9156 22.5896C20.9301 22.5155 20.9401 22.4527 20.9467 22.4062C20.95 22.3829 20.9525 22.3634 20.9543 22.3484C20.9552 22.3409 20.956 22.3345 20.9566 22.3292C20.9569 22.3266 20.9571 22.3243 20.9573 22.3222C20.9574 22.3212 20.9575 22.3203 20.9576 22.3194C20.9577 22.319 20.9577 22.3186 20.9578 22.3182C20.9578 22.318 20.9578 22.3177 20.9578 22.3176C20.9578 22.3173 20.9579 22.317 19.9631 22.215ZM19.1931 23.365C19.2264 22.3656 19.2264 22.3656 19.2264 22.3656C19.2264 22.3656 19.2263 22.3656 19.2263 22.3656C19.2262 22.3655 19.2261 22.3655 19.226 22.3655C19.2258 22.3655 19.2254 22.3655 19.225 22.3655C19.2241 22.3655 19.2228 22.3654 19.221 22.3654C19.2175 22.3653 19.2124 22.3651 19.2057 22.3649C19.1922 22.3644 19.1725 22.3638 19.1473 22.363C19.097 22.3613 19.0247 22.359 18.9366 22.3563C18.7607 22.3508 18.5215 22.3435 18.2693 22.3366C17.7811 22.3232 17.1963 22.3095 16.9587 22.3153L17.0075 24.3147C17.1799 24.3105 17.7001 24.3218 18.2144 24.3359C18.4634 24.3427 18.6999 24.3499 18.8742 24.3553C18.9614 24.358 19.0329 24.3603 19.0826 24.3619C19.1074 24.3627 19.1268 24.3634 19.1399 24.3638C19.1465 24.364 19.1515 24.3642 19.1548 24.3643C19.1565 24.3643 19.1577 24.3644 19.1586 24.3644C19.159 24.3644 19.1593 24.3644 19.1595 24.3644C19.1596 24.3644 19.1597 24.3644 19.1597 24.3644C19.1597 24.3644 19.1598 24.3644 19.1598 24.3644C19.1598 24.3644 19.1598 24.3644 19.1931 23.365ZM16.9831 23.315C16.9831 22.315 16.9837 22.315 16.9844 22.315C16.9846 22.315 16.9853 22.315 16.9857 22.315C16.9866 22.315 16.9874 22.315 16.9883 22.315C16.9901 22.315 16.9918 22.315 16.9935 22.3151C16.9971 22.3151 17.0006 22.3151 17.0041 22.3152C17.0112 22.3154 17.0184 22.3156 17.0256 22.3159C17.0401 22.3166 17.0553 22.3176 17.071 22.3191C17.1019 22.3221 17.1373 22.3272 17.1761 22.3359C17.2502 22.3527 17.3591 22.3882 17.4723 22.468C17.5941 22.554 17.6994 22.6772 17.7627 22.8291C17.823 22.9739 17.8249 23.0954 17.8196 23.158L15.8265 22.992C15.7926 23.399 15.9364 23.832 16.3189 24.102C16.4745 24.2118 16.6272 24.2623 16.7345 24.2866C16.7898 24.2991 16.8391 24.306 16.8798 24.31C16.9004 24.3119 16.9194 24.3132 16.9365 24.3139C16.9451 24.3143 16.9533 24.3146 16.961 24.3148C16.9649 24.3148 16.9687 24.3149 16.9724 24.3149C16.9742 24.315 16.976 24.315 16.9778 24.315C16.9787 24.315 16.9796 24.315 16.9805 24.315C16.9809 24.315 16.9816 24.315 16.9818 24.315C16.9824 24.315 16.9831 24.315 16.9831 23.315ZM16.8231 23.075C17.8185 23.1707 17.8185 23.1706 17.8185 23.1705C17.8185 23.1704 17.8185 23.1702 17.8186 23.17C17.8186 23.1697 17.8186 23.1692 17.8187 23.1685C17.8188 23.1672 17.819 23.1653 17.8192 23.1629C17.8197 23.1579 17.8204 23.1507 17.8213 23.1413C17.8231 23.1224 17.8257 23.0946 17.829 23.0584C17.8357 22.9858 17.8454 22.8793 17.8575 22.7423C17.8817 22.4684 17.9155 22.0725 17.9541 21.5827C18.0312 20.6034 18.1275 19.2467 18.2043 17.7371C18.3567 14.7426 18.4376 11.0613 18.115 8.54768L16.1312 8.80232C16.4286 11.1187 16.3595 14.6374 16.2069 17.6354C16.1312 19.1221 16.0363 20.4597 15.9602 21.4257C15.9222 21.9086 15.889 22.2981 15.8653 22.5664C15.8534 22.7005 15.844 22.8043 15.8375 22.8743C15.8343 22.9093 15.8318 22.9359 15.8301 22.9535C15.8293 22.9623 15.8287 22.9689 15.8283 22.9732C15.8281 22.9754 15.8279 22.977 15.8278 22.978C15.8278 22.9785 15.8277 22.9789 15.8277 22.9791C15.8277 22.9792 15.8277 22.9793 15.8277 22.9793C15.8277 22.9793 15.8277 22.9793 16.8231 23.075ZM17.1231 8.675C18.122 8.62744 18.1219 8.62707 18.1219 8.62671C18.1219 8.62659 18.1219 8.62622 18.1219 8.62597C18.1219 8.62547 18.1218 8.62496 18.1218 8.62444C18.1218 8.62339 18.1217 8.62231 18.1216 8.62117C18.1215 8.61891 18.1214 8.61647 18.1212 8.61385C18.1209 8.60863 18.1205 8.60271 18.1201 8.59612C18.1191 8.58297 18.1178 8.56709 18.116 8.54881C18.1124 8.51243 18.1067 8.4655 18.0976 8.41079C18.0799 8.30423 18.0472 8.15383 17.9846 7.98845C17.8675 7.67925 17.5736 7.14472 16.9086 6.94661L16.3376 8.86339C16.1425 8.80528 16.0987 8.65576 16.1141 8.69655C16.1178 8.70617 16.1219 8.72202 16.1245 8.73796C16.1256 8.7445 16.1259 8.74788 16.1258 8.7465C16.1257 8.74572 16.1255 8.74351 16.1252 8.73966C16.1251 8.73772 16.1249 8.73536 16.1248 8.73252C16.1247 8.73111 16.1246 8.72957 16.1245 8.72791C16.1244 8.72708 16.1244 8.72622 16.1244 8.72533C16.1243 8.72489 16.1243 8.72443 16.1243 8.72397C16.1243 8.72374 16.1243 8.72339 16.1243 8.72328C16.1242 8.72292 16.1242 8.72257 17.1231 8.675ZM16.6231 7.905C16.9835 6.9722 16.9828 6.97195 16.9822 6.9717C16.982 6.97162 16.9813 6.97137 16.9809 6.9712C16.98 6.97087 16.9791 6.97053 16.9782 6.97019C16.9764 6.96951 16.9746 6.96882 16.9728 6.96812C16.969 6.96673 16.9651 6.9653 16.9611 6.96384C16.953 6.96092 16.9442 6.95787 16.9349 6.95475C16.9162 6.94851 16.895 6.94192 16.8713 6.93534C16.8241 6.92221 16.7664 6.90889 16.6996 6.89862C16.5662 6.87814 16.3917 6.86915 16.1911 6.90155C15.7621 6.97085 15.3249 7.21116 14.9683 7.67809L16.5579 8.89191C16.6213 8.80884 16.6141 8.85915 16.5101 8.87595C16.472 8.8821 16.4337 8.88124 16.396 8.87544C16.3769 8.87252 16.3569 8.86818 16.3354 8.8622C16.3246 8.8592 16.3132 8.85572 16.3012 8.8517C16.2952 8.84969 16.289 8.84753 16.2826 8.84522C16.2794 8.84407 16.2761 8.84287 16.2728 8.84164C16.2711 8.84102 16.2695 8.84039 16.2678 8.83975C16.2669 8.83943 16.2661 8.83911 16.2652 8.83878C16.2648 8.83862 16.2642 8.83837 16.264 8.83829C16.2633 8.83805 16.2627 8.8378 16.6231 7.905ZM14.9508 7.70182C13.0215 10.3892 11.9646 13.6045 11.9232 16.9125L13.923 16.9375C13.9593 14.0395 14.8852 11.2226 16.5754 8.86819L14.9508 7.70182ZM12.9231 16.925C11.9236 16.8921 11.9236 16.8922 11.9236 16.8923C11.9236 16.8923 11.9236 16.8924 11.9236 16.8925C11.9236 16.8927 11.9236 16.8928 11.9236 16.893C11.9236 16.8934 11.9236 16.8939 11.9236 16.8945C11.9235 16.8956 11.9235 16.8972 11.9234 16.8991C11.9233 16.9028 11.9231 16.908 11.923 16.9146C11.9226 16.9276 11.9221 16.9461 11.9216 16.9694C11.9206 17.0158 11.9195 17.0815 11.9189 17.1611C11.9177 17.3193 11.9187 17.5371 11.9276 17.7705C11.9363 18.0002 11.9533 18.2638 11.9877 18.5076C12.0152 18.7024 12.0734 19.055 12.2476 19.3428L13.9586 18.3072C14.0009 18.3771 14.006 18.4161 13.996 18.3782C13.9888 18.3509 13.9786 18.302 13.9681 18.2281C13.9472 18.08 13.9336 17.8923 13.9261 17.6945C13.9187 17.5004 13.9178 17.3144 13.9188 17.1758C13.9194 17.107 13.9203 17.0509 13.9212 17.0128C13.9216 16.9937 13.9219 16.9791 13.9222 16.9698C13.9223 16.9651 13.9224 16.9617 13.9225 16.9597C13.9225 16.9587 13.9225 16.958 13.9226 16.9577C13.9226 16.9576 13.9226 16.9575 13.9226 16.9575C13.9226 16.9575 13.9226 16.9576 13.9226 16.9576C13.9226 16.9577 13.9226 16.9577 13.9226 16.9577C13.9226 16.9578 13.9225 16.9579 12.9231 16.925ZM13.1031 18.825C12.2289 19.3106 12.2294 19.3115 12.2299 19.3124C12.2301 19.3127 12.2305 19.3135 12.2309 19.3141C12.2315 19.3153 12.2322 19.3165 12.2328 19.3176C12.2342 19.32 12.2355 19.3223 12.2369 19.3247C12.2396 19.3295 12.2425 19.3343 12.2454 19.3391C12.2512 19.3489 12.2574 19.3589 12.264 19.3691C12.2771 19.3896 12.2918 19.4108 12.308 19.4327C12.3406 19.4766 12.3792 19.5224 12.4248 19.5688C12.5167 19.6624 12.6325 19.7539 12.7757 19.8357C13.0619 19.9993 13.4367 20.1129 13.9233 20.1518L14.0828 18.1582C13.8195 18.1371 13.7443 18.0857 13.768 18.0993C13.78 18.1061 13.8113 18.1263 13.8517 18.1674C13.8715 18.1876 13.8926 18.2119 13.914 18.2407C13.9247 18.2551 13.9353 18.2705 13.9459 18.287C13.9512 18.2952 13.9565 18.3037 13.9617 18.3124C13.9643 18.3168 13.9669 18.3212 13.9695 18.3257C13.9708 18.3279 13.9721 18.3302 13.9734 18.3325C13.974 18.3336 13.9747 18.3348 13.9753 18.3359C13.9756 18.3365 13.9761 18.3373 13.9763 18.3376C13.9768 18.3385 13.9772 18.3394 13.1031 18.825ZM13.8647 20.1454L14.7947 20.2754L15.0715 18.2946L14.1415 18.1646L13.8647 20.1454ZM14.9331 19.285C14.9331 20.285 14.9325 20.285 14.9318 20.285C14.9316 20.285 14.931 20.285 14.9306 20.285C14.9297 20.285 14.9289 20.285 14.9281 20.285C14.9264 20.285 14.9247 20.285 14.9231 20.2849C14.9197 20.2849 14.9163 20.2849 14.913 20.2848C14.9062 20.2847 14.8993 20.2844 14.8924 20.2841C14.8785 20.2836 14.8641 20.2826 14.8492 20.2812C14.8197 20.2785 14.7859 20.2739 14.7488 20.2659C14.6787 20.2506 14.5725 20.2179 14.4603 20.142C14.3391 20.0601 14.228 19.9384 14.1595 19.7808C14.0937 19.6294 14.0907 19.4994 14.0968 19.4284L16.0893 19.6016C16.126 19.1799 15.9668 18.7466 15.5809 18.4855C15.4262 18.3808 15.2762 18.3337 15.173 18.3113C15.1193 18.2997 15.0716 18.2933 15.0324 18.2897C15.0126 18.2878 14.9943 18.2867 14.9778 18.286C14.9696 18.2856 14.9617 18.2854 14.9543 18.2852C14.9505 18.2851 14.9469 18.2851 14.9434 18.2851C14.9416 18.285 14.9399 18.285 14.9382 18.285C14.9373 18.285 14.9365 18.285 14.9356 18.285C14.9352 18.285 14.9346 18.285 14.9343 18.285C14.9337 18.285 14.9331 18.285 14.9331 19.285ZM15.0931 19.515C14.0959 19.4402 14.0959 19.4402 14.0959 19.4402C14.0959 19.4403 14.0959 19.4403 14.0959 19.4403C14.0959 19.4404 14.0959 19.4405 14.0959 19.4407C14.0958 19.441 14.0958 19.4415 14.0957 19.4422C14.0956 19.4435 14.0955 19.4454 14.0953 19.4481C14.0949 19.4533 14.0943 19.4611 14.0935 19.4714C14.092 19.4919 14.0897 19.5221 14.0868 19.5607C14.0809 19.6379 14.0725 19.7489 14.0621 19.8837C14.0414 20.1533 14.0131 20.5177 13.9825 20.8974C13.9198 21.6785 13.8525 22.4637 13.8227 22.6764L15.8034 22.9536C15.8437 22.6663 15.9164 21.8015 15.9761 21.0576C16.0069 20.6748 16.0354 20.308 16.0562 20.037C16.0667 19.9014 16.0752 19.7897 16.0811 19.7119C16.084 19.673 16.0863 19.6425 16.0879 19.6217C16.0887 19.6114 16.0893 19.6034 16.0897 19.598C16.0899 19.5953 16.09 19.5933 16.0901 19.5919C16.0902 19.5912 16.0902 19.5907 16.0902 19.5903C16.0903 19.5902 16.0903 19.59 16.0903 19.5899C16.0903 19.5899 16.0903 19.5899 16.0903 19.5898C16.0903 19.5898 16.0903 19.5898 15.0931 19.515ZM13.8131 22.815C13.8131 22.8171 13.813 22.8177 13.8131 22.8171C13.8131 22.8165 13.8133 22.8153 13.8135 22.8137C13.8138 22.8122 13.8141 22.8111 13.8142 22.8106C13.8143 22.8102 13.8141 22.811 13.8133 22.8133L15.6929 23.4967C15.772 23.2792 15.8131 23.0536 15.8131 22.815H13.8131ZM14.7531 23.155C13.8393 22.7489 13.8398 22.7476 13.8404 22.7464C13.8405 22.746 13.8411 22.7448 13.8415 22.744C13.8422 22.7424 13.8429 22.7407 13.8437 22.7391C13.8452 22.7359 13.8467 22.7326 13.8482 22.7294C13.8512 22.7229 13.8544 22.7164 13.8576 22.71C13.864 22.6971 13.8707 22.6842 13.8778 22.6715C13.8919 22.6459 13.9073 22.6209 13.9239 22.5965C13.9572 22.5475 13.9946 22.5024 14.0352 22.4618C14.1177 22.3793 14.2041 22.3247 14.2793 22.2901C14.4218 22.2246 14.5087 22.2374 14.4576 22.2356L14.3886 24.2344C14.6275 24.2426 14.8794 24.2154 15.1143 24.1074C15.2358 24.0516 15.3503 23.9751 15.4494 23.876C15.4983 23.8271 15.5411 23.7751 15.5777 23.7212C15.596 23.6943 15.6125 23.6674 15.6273 23.6405C15.6348 23.6271 15.6418 23.6138 15.6484 23.6005C15.6517 23.5939 15.6548 23.5873 15.6579 23.5807C15.6595 23.5775 15.661 23.5742 15.6625 23.5709C15.6632 23.5693 15.664 23.5677 15.6647 23.566C15.6651 23.5652 15.6656 23.564 15.6658 23.5636C15.6664 23.5624 15.6669 23.5611 14.7531 23.155ZM14.4231 23.235C14.4303 22.235 14.4303 22.235 14.4303 22.235C14.4302 22.235 14.4302 22.235 14.4301 22.235C14.43 22.235 14.4298 22.235 14.4295 22.235C14.429 22.235 14.4283 22.235 14.4272 22.235C14.4252 22.235 14.4222 22.235 14.4183 22.2349C14.4104 22.2349 14.3986 22.2348 14.3833 22.2347C14.3527 22.2345 14.3078 22.2342 14.2505 22.2338C14.1359 22.233 13.9717 22.232 13.7732 22.2308C13.3763 22.2285 12.842 22.2256 12.2928 22.2238C11.2248 22.2201 10.0183 22.2192 9.73939 22.237L9.86679 24.233C10.0579 24.2208 11.1614 24.2199 12.2859 24.2237C12.8329 24.2256 13.3655 24.2284 13.7614 24.2308C13.9593 24.2319 14.123 24.233 14.2372 24.2337C14.2943 24.2341 14.339 24.2344 14.3694 24.2346C14.3846 24.2348 14.3962 24.2348 14.4041 24.2349C14.408 24.2349 14.4109 24.2349 14.4129 24.235C14.4139 24.235 14.4146 24.235 14.4151 24.235C14.4154 24.235 14.4156 24.235 14.4157 24.235C14.4157 24.235 14.4158 24.235 14.4158 24.235C14.4158 24.235 14.4159 24.235 14.4231 23.235ZM9.80309 23.235C9.80309 22.235 9.80333 22.235 9.80358 22.235C9.80366 22.235 9.8039 22.235 9.80406 22.235C9.80438 22.235 9.8047 22.235 9.80502 22.235C9.80566 22.235 9.80629 22.235 9.80691 22.235C9.80815 22.235 9.80937 22.235 9.81055 22.235C9.81293 22.235 9.81521 22.2351 9.81739 22.2351C9.82174 22.2352 9.8258 22.2353 9.82961 22.2354C9.83708 22.2357 9.84431 22.2361 9.8516 22.2367C9.86336 22.2376 9.88703 22.2399 9.91971 22.2474C9.94593 22.2533 10.023 22.2723 10.1172 22.3266C10.212 22.3813 10.3909 22.5119 10.4916 22.7636L8.63461 23.5064C8.75531 23.8081 8.97419 23.9762 9.11774 24.059C9.26073 24.1415 9.39525 24.1792 9.47647 24.1976C9.56414 24.2176 9.64031 24.2261 9.69083 24.2302C9.71749 24.2324 9.74067 24.2335 9.75923 24.2342C9.76858 24.2345 9.77697 24.2347 9.78428 24.2348C9.78794 24.2349 9.79134 24.2349 9.79447 24.235C9.79604 24.235 9.79754 24.235 9.79898 24.235C9.7997 24.235 9.8004 24.235 9.80108 24.235C9.80143 24.235 9.80176 24.235 9.8021 24.235C9.80226 24.235 9.80251 24.235 9.8026 24.235C9.80284 24.235 9.80309 24.235 9.80309 23.235ZM10.4916 22.7636C10.5214 22.8382 10.5346 22.899 10.5365 22.9075C10.541 22.9277 10.5436 22.9424 10.5444 22.9473C10.5462 22.9575 10.5464 22.9604 10.5452 22.9507C10.5429 22.9331 10.5392 22.9006 10.5343 22.8504C10.5245 22.7519 10.512 22.6105 10.4977 22.4362C10.4693 22.0888 10.4349 21.627 10.402 21.151C10.3338 20.166 10.279 19.2181 10.2829 19.025L8.28329 18.985C8.27715 19.2919 8.34237 20.359 8.40672 21.289C8.44003 21.7705 8.47504 22.2412 8.5044 22.5995C8.51902 22.7779 8.53257 22.9326 8.54407 23.0483C8.54972 23.1051 8.55553 23.1592 8.56133 23.2045C8.56411 23.2263 8.56799 23.2548 8.57304 23.2843C8.57551 23.2988 8.57963 23.3216 8.58564 23.3482C8.58902 23.3631 8.60352 23.4287 8.63461 23.5064L10.4916 22.7636ZM10.2831 19.005C10.2831 19.2071 10.1745 19.5455 9.80448 19.6935L9.0617 17.8365C8.49173 18.0645 8.28309 18.6029 8.28309 19.005H10.2831ZM9.96283 19.6132C10.4064 19.3361 10.7819 18.9626 11.0613 18.5205L9.3705 17.4521C9.25168 17.6402 9.09201 17.799 8.90335 17.9168L9.96283 19.6132ZM11.0613 18.5205C11.3406 18.0783 11.5168 17.5789 11.5765 17.0593L9.58964 16.8307C9.56422 17.0517 9.48932 17.2641 9.3705 17.4521L11.0613 18.5205ZM11.5788 17.0372C11.6344 16.4371 11.6336 15.8561 11.6015 15.2885L9.60469 15.4015C9.63256 15.8939 9.63178 16.3729 9.58735 16.8528L11.5788 17.0372ZM10.6031 15.345C11.6027 15.3728 11.6027 15.3727 11.6027 15.3727C11.6027 15.3727 11.6027 15.3726 11.6027 15.3725C11.6027 15.3724 11.6027 15.3721 11.6027 15.3718C11.6027 15.3712 11.6028 15.3702 11.6028 15.3689C11.6029 15.3663 11.603 15.3624 11.6031 15.3573C11.6034 15.3471 11.6038 15.3319 11.6044 15.3121C11.6055 15.2724 11.6071 15.214 11.6092 15.1394C11.6134 14.9902 11.6195 14.776 11.6269 14.5164C11.6417 13.997 11.662 13.2956 11.6839 12.5675C11.7279 11.1003 11.7775 9.55498 11.8014 9.14304L9.80477 9.02696C9.77872 9.47502 9.72825 11.0597 9.68479 12.5075C9.66289 13.2369 9.64257 13.9393 9.62771 14.4593C9.62029 14.7193 9.61423 14.9337 9.61003 15.0832C9.60793 15.1579 9.60629 15.2164 9.60518 15.2562C9.60462 15.2761 9.60419 15.2914 9.60391 15.3016C9.60376 15.3068 9.60366 15.3107 9.60358 15.3133C9.60355 15.3146 9.60352 15.3156 9.6035 15.3162C9.60349 15.3166 9.60349 15.3168 9.60348 15.317C9.60348 15.3171 9.60348 15.3171 9.60348 15.3172C9.60347 15.3172 9.60347 15.3172 10.6031 15.345ZM10.8031 9.085C11.8007 9.1538 11.8008 9.15316 11.8008 9.15251C11.8008 9.1523 11.8009 9.15165 11.8009 9.15121C11.801 9.15034 11.801 9.14946 11.8011 9.14858C11.8012 9.14681 11.8013 9.14501 11.8014 9.14317C11.8016 9.13951 11.8018 9.13572 11.802 9.13181C11.8024 9.12399 11.8027 9.11567 11.8029 9.10686C11.8033 9.08929 11.8034 9.06963 11.8029 9.04812C11.8019 9.0054 11.7984 8.95362 11.7899 8.89516C11.7732 8.78044 11.735 8.62444 11.6456 8.45882C11.4384 8.07494 11.0554 7.81696 10.5735 7.75355L10.3126 9.73646C10.2809 9.73228 10.201 9.71504 10.1067 9.65243C10.0101 9.58833 9.93553 9.50126 9.88557 9.40869C9.83868 9.32181 9.8192 9.24143 9.81066 9.18265C9.80623 9.15216 9.80415 9.12343 9.8035 9.09677C9.80317 9.08328 9.8032 9.0699 9.80354 9.0566C9.8037 9.04993 9.80395 9.04324 9.80427 9.03652C9.80443 9.03316 9.80461 9.02979 9.80481 9.02641C9.80491 9.02471 9.80501 9.02302 9.80512 9.02131C9.80517 9.02046 9.80523 9.01961 9.80529 9.01876C9.80531 9.01833 9.80536 9.01769 9.80537 9.01748C9.80541 9.01684 9.80546 9.0162 10.8031 9.085ZM10.6825 7.77408C10.3358 7.68861 9.96946 7.74288 9.66248 7.92519L10.6837 9.64481C10.5392 9.7306 10.3668 9.75615 10.2037 9.71592L10.6825 7.77408ZM9.64652 7.93487C9.3441 8.12219 9.1271 8.42055 9.04207 8.76598L10.9841 9.24402C10.9441 9.40658 10.842 9.54698 10.6997 9.63513L9.64652 7.93487ZM9.01309 9.005V9.035H11.0131V9.005H9.01309ZM9.01309 9.035C9.01309 8.99 9.0172 8.94407 9.01256 9.00956C9.01063 9.03683 9.00782 9.07605 9.00413 9.12755C8.99682 9.2298 8.9864 9.3762 8.97405 9.55549C8.94936 9.91388 8.91691 10.4043 8.88601 10.9385C8.82524 11.989 8.76677 13.266 8.79373 14.0207L10.7925 13.9493C10.7694 13.304 10.8209 12.121 10.8827 11.054C10.913 10.5294 10.9449 10.0467 10.9693 9.69295C10.9815 9.51614 10.9918 9.37169 10.999 9.27023C11.0026 9.21987 11.0056 9.17902 11.0076 9.15075C11.0086 9.13672 11.0094 9.12438 11.0101 9.11489C11.0104 9.11037 11.0107 9.10468 11.0111 9.09906C11.0112 9.09645 11.0115 9.09165 11.0118 9.08596C11.0119 9.08316 11.0122 9.07826 11.0124 9.07222C11.0125 9.06866 11.0131 9.05384 11.0131 9.035H9.01309ZM9.79309 13.985C8.79894 14.0931 8.79891 14.0927 8.79887 14.0924C8.79886 14.0923 8.79882 14.0919 8.7988 14.0917C8.79876 14.0913 8.79871 14.0909 8.79867 14.0905C8.79858 14.0897 8.7985 14.0889 8.79843 14.0882C8.79828 14.0868 8.79816 14.0855 8.79805 14.0844C8.79785 14.0823 8.79772 14.0809 8.79765 14.0801C8.79752 14.0786 8.79762 14.0795 8.7978 14.0826C8.79818 14.089 8.79876 14.1024 8.7986 14.12C8.79823 14.1611 8.79408 14.195 8.78988 14.2123C8.78386 14.2372 8.79232 14.1741 8.8677 14.0922C8.90977 14.0465 8.96743 14.0013 9.03907 13.9687C9.11056 13.9362 9.1729 13.9267 9.21233 13.9255L9.27384 15.9245C9.70288 15.9113 10.0732 15.7355 10.3388 15.4472C10.5782 15.1872 10.6836 14.8903 10.7338 14.6827C10.7859 14.4675 10.7973 14.2701 10.7985 14.1381C10.7991 14.0691 10.797 14.0105 10.7944 13.9665C10.7931 13.9444 10.7917 13.9256 10.7905 13.9106C10.7898 13.903 10.7892 13.8964 10.7887 13.8908C10.7884 13.888 10.7881 13.8855 10.7879 13.8831C10.7878 13.882 10.7877 13.8809 10.7875 13.8799C10.7875 13.8793 10.7874 13.8788 10.7874 13.8783C10.7874 13.8781 10.7873 13.8778 10.7873 13.8776C10.7873 13.8773 10.7872 13.8769 9.79309 13.985ZM9.24309 14.925C9.08386 13.9378 9.08444 13.9377 9.08503 13.9376C9.08522 13.9375 9.0858 13.9374 9.08619 13.9374C9.08696 13.9373 9.08772 13.9371 9.08848 13.937C9.09 13.9368 9.0915 13.9366 9.09297 13.9363C9.09591 13.9359 9.09877 13.9355 9.10155 13.9351C9.10709 13.9343 9.11232 13.9336 9.11727 13.933C9.12712 13.9318 9.13605 13.931 9.14425 13.9304C9.16018 13.9292 9.17549 13.9289 9.19103 13.9296C9.21706 13.9308 9.27094 13.936 9.33881 13.9664C9.41743 14.0017 9.49864 14.0646 9.55327 14.1513C9.6042 14.2321 9.5946 14.2742 9.59233 14.2161L7.59385 14.2939C7.60658 14.6208 7.68573 14.9392 7.86134 15.2178C8.04067 15.5023 8.2825 15.6845 8.51987 15.7911C8.74649 15.8928 8.95725 15.9211 9.10046 15.9276C9.17459 15.9309 9.23858 15.9288 9.28853 15.9252C9.31374 15.9234 9.33602 15.9211 9.35497 15.9188C9.36446 15.9177 9.37318 15.9166 9.38107 15.9154C9.38502 15.9149 9.38877 15.9143 9.39231 15.9138C9.39408 15.9135 9.3958 15.9133 9.39747 15.913C9.3983 15.9129 9.39913 15.9128 9.39993 15.9126C9.40034 15.9126 9.40094 15.9125 9.40114 15.9124C9.40173 15.9123 9.40232 15.9122 9.24309 14.925ZM8.59309 14.255C9.59298 14.2694 9.59298 14.2695 9.59298 14.2694C9.59299 14.2694 9.59299 14.2694 9.59299 14.2694C9.59299 14.2693 9.59299 14.2691 9.59299 14.269C9.593 14.2686 9.59301 14.268 9.59302 14.2672C9.59304 14.2656 9.59308 14.2633 9.59312 14.2601C9.59322 14.2537 9.59337 14.244 9.59356 14.2314C9.59396 14.206 9.59456 14.1685 9.59539 14.12C9.59703 14.0229 9.59955 13.8822 9.60304 13.7078C9.61003 13.3591 9.6209 12.8765 9.63642 12.3415C9.6677 11.2629 9.71712 10 9.78922 9.18289L7.79696 9.00711C7.71906 9.89 7.66848 11.2071 7.63726 12.2835C7.62153 12.826 7.61052 13.3147 7.60345 13.6678C7.59991 13.8444 7.59735 13.9872 7.59567 14.0861C7.59484 14.1355 7.59422 14.1739 7.59381 14.2001C7.5936 14.2132 7.59345 14.2232 7.59335 14.23C7.5933 14.2334 7.59326 14.236 7.59323 14.2378C7.59322 14.2386 7.59321 14.2393 7.5932 14.2398C7.5932 14.24 7.5932 14.2402 7.5932 14.2403C7.5932 14.2404 7.5932 14.2404 7.59319 14.2405C7.59319 14.2405 7.59319 14.2406 8.59309 14.255ZM9.79309 9.095C9.79309 8.39737 9.27968 7.79267 8.55259 7.71996L8.35359 9.71004C8.20694 9.69537 8.05959 9.62438 7.95068 9.50186C7.84294 9.38066 7.79309 9.23225 7.79309 9.095H9.79309ZM8.60466 7.72655C8.25426 7.67282 7.89662 7.75599 7.60588 7.95883L8.75024 9.59909C8.61962 9.69022 8.45894 9.72759 8.30151 9.70345L8.60466 7.72655ZM7.60588 7.95883C7.31514 8.16167 7.11362 8.46862 7.04308 8.81603L9.00309 9.21397C8.9714 9.37006 8.88086 9.50796 8.75024 9.59909L7.60588 7.95883ZM7.02309 9.015V9.055H9.02309V9.015H7.02309ZM8.02309 9.055C7.02642 8.97345 7.02642 8.9735 7.02641 8.97355C7.02641 8.97358 7.0264 8.97365 7.0264 8.97372C7.02639 8.97386 7.02637 8.97404 7.02635 8.97428C7.02631 8.97476 7.02626 8.97544 7.02619 8.97631C7.02604 8.97806 7.02584 8.98059 7.02557 8.9839C7.02504 8.99051 7.02425 9.0002 7.02325 9.01283C7.02123 9.03809 7.0183 9.07508 7.0146 9.12262C7.0072 9.2177 6.99672 9.35504 6.98433 9.52512C6.95955 9.86509 6.92703 10.3368 6.89606 10.8638C6.8348 11.9065 6.77712 13.2055 6.8035 14.1237L8.80268 14.0663C8.77906 13.2445 8.83138 12.0235 8.89262 10.9812C8.9229 10.4657 8.95475 10.0037 8.97904 9.67051C8.99117 9.50402 9.0014 9.36995 9.00857 9.27777C9.01216 9.23168 9.01498 9.19608 9.01689 9.17214C9.01785 9.16017 9.01858 9.15112 9.01906 9.14514C9.0193 9.14215 9.01948 9.13993 9.0196 9.13849C9.01966 9.13777 9.0197 9.13725 9.01973 9.13692C9.01974 9.13676 9.01975 9.13665 9.01975 9.13658C9.01976 9.13655 9.01976 9.13654 9.01976 9.13653C9.01976 9.13653 9.01976 9.13655 8.02309 9.055ZM7.80309 14.095C6.80749 14.1887 6.80745 14.1883 6.80742 14.1879C6.80741 14.1878 6.80737 14.1874 6.80735 14.1872C6.8073 14.1867 6.80726 14.1862 6.80722 14.1858C6.80713 14.1848 6.80705 14.1839 6.80698 14.1831C6.80683 14.1814 6.8067 14.1798 6.80658 14.1784C6.80636 14.1757 6.8062 14.1735 6.80609 14.1719C6.80588 14.1688 6.80586 14.1677 6.80588 14.1685C6.80595 14.1704 6.80615 14.1776 6.80574 14.1879C6.80466 14.2152 6.80095 14.2265 6.8033 14.219C6.80468 14.2145 6.83101 14.1276 6.93325 14.04C6.98707 13.9939 7.05017 13.9583 7.11595 13.937C7.18008 13.9163 7.22778 13.9151 7.24716 13.916L7.15901 15.914C7.55496 15.9315 7.93332 15.8167 8.23417 15.5591C8.51267 15.3206 8.64649 15.0267 8.71287 14.8135C8.78022 14.5972 8.79901 14.3979 8.80419 14.2668C8.80691 14.1978 8.80616 14.1389 8.80451 14.0944C8.80368 14.072 8.8026 14.0527 8.80155 14.0372C8.80102 14.0294 8.8005 14.0224 8.80001 14.0164C8.79977 14.0134 8.79953 14.0107 8.79931 14.0082C8.7992 14.0069 8.79909 14.0057 8.79899 14.0045C8.79894 14.004 8.79889 14.0034 8.79884 14.0029C8.79881 14.0026 8.79877 14.0022 8.79876 14.0021C8.79872 14.0017 8.79869 14.0013 7.80309 14.095ZM7.20309 14.915C7.09655 13.9207 7.0972 13.9206 7.09784 13.9206C7.09806 13.9205 7.0987 13.9205 7.09913 13.9204C7.09998 13.9203 7.10083 13.9202 7.10167 13.9202C7.10335 13.92 7.10502 13.9198 7.10667 13.9197C7.10996 13.9193 7.11319 13.919 7.11635 13.9188C7.12266 13.9182 7.12872 13.9178 7.13456 13.9174C7.14619 13.9167 7.15714 13.9163 7.16753 13.9162C7.1879 13.9159 7.2082 13.9168 7.22892 13.9192C7.26718 13.9236 7.32727 13.9355 7.39535 13.9725C7.47189 14.0141 7.53732 14.0763 7.57793 14.1461C7.61529 14.2103 7.60504 14.235 7.60167 14.1717L5.60451 14.2783C5.63999 14.9435 5.94355 15.4599 6.44083 15.73C6.65391 15.8457 6.8565 15.8896 7.00101 15.9061C7.07485 15.9146 7.13921 15.9166 7.19037 15.916C7.21615 15.9158 7.23916 15.9148 7.25902 15.9136C7.26897 15.9129 7.27818 15.9122 7.28661 15.9115C7.29083 15.9112 7.29486 15.9108 7.2987 15.9104C7.30061 15.9102 7.30248 15.9101 7.3043 15.9099C7.30521 15.9098 7.30611 15.9097 7.307 15.9096C7.30744 15.9095 7.3081 15.9095 7.30832 15.9094C7.30897 15.9094 7.30962 15.9093 7.20309 14.915ZM6.60309 14.225C7.60251 14.2589 7.60251 14.2589 7.60252 14.2588C7.60252 14.2588 7.60252 14.2587 7.60252 14.2587C7.60253 14.2585 7.60253 14.2583 7.60254 14.258C7.60256 14.2575 7.60259 14.2566 7.60263 14.2555C7.60271 14.2532 7.60282 14.2499 7.60297 14.2454C7.60327 14.2365 7.60372 14.2233 7.60431 14.206C7.60549 14.1714 7.60723 14.1206 7.60945 14.0558C7.6139 13.9261 7.6203 13.7405 7.62811 13.5166C7.64372 13.0686 7.66495 12.4677 7.68742 11.8554C7.7099 11.2428 7.73357 10.6201 7.75409 10.1281C7.76436 9.88184 7.77376 9.67023 7.78177 9.50976C7.78578 9.42936 7.78933 9.36391 7.79237 9.3144C7.79579 9.25871 7.79758 9.23981 7.7973 9.24248L5.80888 9.02752C5.78384 9.25914 5.7325 10.5903 5.68876 11.7821C5.66623 12.396 5.64496 12.9982 5.62932 13.4469C5.6215 13.6712 5.61509 13.8572 5.61063 13.9872C5.6084 14.0521 5.60666 14.1031 5.60548 14.1378C5.60488 14.1552 5.60443 14.1685 5.60413 14.1775C5.60397 14.182 5.60386 14.1854 5.60378 14.1877C5.60374 14.1888 5.60371 14.1897 5.60369 14.1902C5.60368 14.1905 5.60368 14.1907 5.60367 14.1909C5.60367 14.191 5.60367 14.191 5.60366 14.1911C5.60366 14.1911 5.60366 14.1911 6.60309 14.225ZM7.80197 9.08781C7.78641 8.75828 7.6533 8.44523 7.42679 8.20539L5.97276 9.57864C5.871 9.47089 5.8112 9.33024 5.8042 9.18219L7.80197 9.08781ZM7.42679 8.20539C7.20028 7.96556 6.89534 7.8148 6.56724 7.78044L6.35894 9.76956C6.21153 9.75413 6.07453 9.68639 5.97276 9.57864L7.42679 8.20539ZM6.46309 7.775H6.42309V9.775H6.46309V7.775ZM6.51393 7.77913C6.16452 7.74726 5.81609 7.84968 5.5395 8.06555L6.77004 9.64219C6.64577 9.73917 6.48923 9.78519 6.33225 9.77087L6.51393 7.77913ZM5.5395 8.06555C5.26291 8.28143 5.07893 8.59455 5.02498 8.94124L7.0012 9.24876C6.97696 9.40452 6.8943 9.5452 6.77004 9.64219L5.5395 8.06555ZM5.01309 9.095V9.125H7.01309V9.095H5.01309ZM6.01309 9.125C5.01406 9.08087 5.01406 9.0809 5.01406 9.08096C5.01406 9.081 5.01405 9.08108 5.01405 9.08117C5.01404 9.08135 5.01403 9.08162 5.01401 9.08198C5.01398 9.08269 5.01394 9.08374 5.01387 9.08513C5.01375 9.0879 5.01357 9.09202 5.01333 9.09745C5.01286 9.10831 5.01215 9.12441 5.01124 9.14544C5.0094 9.18752 5.00672 9.24935 5.00332 9.32859C4.99653 9.48707 4.98685 9.71519 4.97534 9.99408C4.95233 10.5518 4.92195 11.3129 4.89249 12.1263C4.8341 13.7391 4.77765 15.5999 4.79325 16.4631L6.79293 16.4269C6.77852 15.6301 6.83208 13.8309 6.89118 12.1987C6.92048 11.3896 6.95072 10.632 6.97364 10.0765C6.9851 9.79887 6.99473 9.57184 7.00149 9.4143C7.00486 9.33553 7.00753 9.27414 7.00934 9.2325C7.01025 9.21167 7.01094 9.19578 7.01141 9.18512C7.01164 9.17979 7.01182 9.17577 7.01194 9.17309C7.012 9.17175 7.01204 9.17075 7.01207 9.17009C7.01209 9.16976 7.0121 9.16951 7.0121 9.16935C7.01211 9.16927 7.01211 9.16921 7.01211 9.16917C7.01211 9.16914 7.01211 9.16913 6.01309 9.125ZM5.79309 16.445C4.79316 16.4332 4.79315 16.4336 4.79315 16.434C4.79315 16.4341 4.79314 16.4345 4.79314 16.4348C4.79313 16.4353 4.79313 16.4359 4.79312 16.4365C4.79311 16.4377 4.7931 16.439 4.7931 16.4404C4.79308 16.4432 4.79307 16.4465 4.79307 16.4502C4.79307 16.4575 4.79312 16.4666 4.79326 16.4772C4.79353 16.4985 4.79417 16.5263 4.79552 16.5598C4.79823 16.6267 4.80383 16.7175 4.81533 16.8265C4.8381 17.0424 4.88513 17.3402 4.98401 17.6698C5.17749 18.3148 5.60682 19.1952 6.56038 19.7208L7.5258 17.9692C7.20936 17.7948 7.01369 17.4752 6.89966 17.0952C6.8448 16.9123 6.81745 16.7414 6.80429 16.6166C6.79781 16.5553 6.79506 16.5078 6.79389 16.479C6.79332 16.4647 6.79314 16.4553 6.79309 16.4513C6.79306 16.4493 6.79307 16.4487 6.79307 16.4496C6.79307 16.4501 6.79307 16.4509 6.79306 16.4521C6.79306 16.4526 6.79305 16.4533 6.79305 16.4541C6.79304 16.4545 6.79304 16.4549 6.79303 16.4554C6.79303 16.4556 6.79303 16.4559 6.79303 16.456C6.79302 16.4564 6.79302 16.4568 5.79309 16.445ZM7.04309 18.845C6.55745 19.7192 6.55715 19.719 6.55686 19.7188C6.55676 19.7188 6.55646 19.7186 6.55626 19.7185C6.55587 19.7183 6.55548 19.7181 6.55509 19.7178C6.55431 19.7174 6.55353 19.717 6.55276 19.7165C6.55123 19.7157 6.54971 19.7148 6.54823 19.714C6.54525 19.7123 6.54236 19.7106 6.53956 19.709C6.53397 19.7057 6.52865 19.7025 6.52357 19.6993C6.51352 19.6931 6.50384 19.6867 6.4944 19.68C6.47699 19.6677 6.45347 19.6496 6.42723 19.6234C6.38967 19.5858 6.2502 19.4353 6.23481 19.1737L8.23136 19.0563C8.20598 18.6247 7.97151 18.3392 7.84144 18.2091C7.76895 18.1367 7.69982 18.0829 7.64834 18.0465C7.62187 18.0278 7.59805 18.0123 7.57812 17.9999C7.56809 17.9937 7.5589 17.9882 7.55066 17.9834C7.54654 17.981 7.54264 17.9787 7.53898 17.9766C7.53716 17.9756 7.53539 17.9746 7.53368 17.9736C7.53282 17.9731 7.53198 17.9727 7.53116 17.9722C7.53074 17.972 7.53033 17.9717 7.52993 17.9715C7.52973 17.9714 7.52943 17.9712 7.52932 17.9712C7.52902 17.971 7.52873 17.9708 7.04309 18.845ZM7.23309 19.115C6.23418 19.1616 6.23418 19.1616 6.23418 19.1617C6.23418 19.1617 6.23418 19.1618 6.23418 19.1618C6.23419 19.1619 6.2342 19.1621 6.23421 19.1623C6.23423 19.1627 6.23425 19.1633 6.23429 19.164C6.23436 19.1655 6.23446 19.1678 6.2346 19.1707C6.23488 19.1766 6.23529 19.1852 6.23582 19.1965C6.2369 19.219 6.23848 19.2521 6.24054 19.2944C6.24466 19.379 6.25067 19.5008 6.2583 19.6498C6.27355 19.9478 6.29525 20.3555 6.32107 20.7938C6.37165 21.6524 6.44099 22.6839 6.51213 23.2092L8.49404 22.9408C8.43518 22.5061 8.36953 21.5576 8.31761 20.6762C8.29218 20.2445 8.27076 19.8422 8.25569 19.5477C8.24816 19.4005 8.24222 19.2804 8.23818 19.1972C8.23615 19.1556 8.2346 19.1233 8.23356 19.1014C8.23304 19.0904 8.23265 19.0821 8.23239 19.0766C8.23225 19.0738 8.23216 19.0717 8.23209 19.0703C8.23206 19.0697 8.23204 19.0691 8.23202 19.0688C8.23201 19.0687 8.23201 19.0685 8.23201 19.0685C8.232 19.0684 8.232 19.0684 8.232 19.0684C8.232 19.0684 8.232 19.0684 7.23309 19.115ZM7.50309 23.075C6.52411 23.279 6.52402 23.2786 6.52394 23.2782C6.52391 23.278 6.52383 23.2776 6.52378 23.2774C6.52367 23.2768 6.52356 23.2763 6.52345 23.2758C6.52323 23.2747 6.52302 23.2736 6.52281 23.2726C6.52238 23.2705 6.52197 23.2684 6.52157 23.2663C6.52077 23.2622 6.52 23.2581 6.51927 23.2541C6.51782 23.246 6.51649 23.2378 6.51529 23.2296C6.51296 23.2136 6.51084 23.1953 6.50957 23.1749C6.50749 23.1417 6.50508 23.0677 6.52711 22.9716C6.54917 22.8754 6.61089 22.6943 6.7854 22.5363C6.97594 22.3637 7.19349 22.315 7.34309 22.315V24.315C7.59768 24.315 7.88773 24.2363 8.12796 24.0187C8.35216 23.8157 8.44076 23.5746 8.47657 23.4184C8.51235 23.2623 8.51056 23.1283 8.50567 23.0501C8.50299 23.0072 8.49861 22.9702 8.49436 22.941C8.49221 22.9262 8.49 22.9129 8.48792 22.9013C8.48688 22.8955 8.48586 22.8901 8.48488 22.885C8.48439 22.8825 8.48391 22.8801 8.48344 22.8778C8.48321 22.8766 8.48298 22.8754 8.48275 22.8743C8.48263 22.8738 8.48252 22.8732 8.48241 22.8727C8.48235 22.8724 8.48226 22.872 8.48224 22.8719C8.48215 22.8715 8.48207 22.871 7.50309 23.075ZM7.31802 22.3153L4.12802 22.3953L4.17816 24.3947L7.36816 24.3147L7.31802 22.3153ZM4.15119 22.395C4.24041 22.3948 4.32632 22.4287 4.39137 22.4898L3.02274 23.9482C3.32941 24.236 3.73441 24.3958 4.15498 24.395L4.15119 22.395ZM4.39137 22.4898C4.45642 22.5508 4.4957 22.6344 4.50119 22.7235L2.50498 22.8465C2.53086 23.2663 2.71606 23.6604 3.02274 23.9482L4.39137 22.4898ZM4.49459 22.6549C4.08372 19.5238 3.88609 16.3683 3.90307 13.2104L1.9031 13.1996C1.88563 16.4482 2.08893 19.6941 2.51159 22.9151L4.49459 22.6549ZM3.89696 13.3156C3.93694 12.9561 3.84484 12.5944 3.63783 12.2979L1.99791 13.4428C1.92706 13.3413 1.89553 13.2175 1.90922 13.0944L3.89696 13.3156ZM3.63783 12.2979C3.43082 12.0014 3.12303 11.7903 2.77186 11.7039L2.29432 13.6461C2.17412 13.6165 2.06877 13.5443 1.99791 13.4428L3.63783 12.2979ZM2.53309 12.675C2.62417 11.6792 2.62418 11.6792 2.62418 11.6792C2.62418 11.6792 2.62417 11.6792 2.62416 11.6792C2.62413 11.6792 2.62408 11.6791 2.624 11.6791C2.62385 11.6791 2.62359 11.6791 2.62324 11.6791C2.62254 11.679 2.62145 11.6789 2.61998 11.6788C2.61705 11.6785 2.6126 11.6781 2.60674 11.6775C2.59501 11.6765 2.57761 11.6748 2.55524 11.6727C2.51048 11.6686 2.44588 11.6624 2.36707 11.6548C2.20924 11.6395 1.99533 11.6183 1.77001 11.5943C1.28302 11.5426 0.849288 11.4886 0.727948 11.4606L0.278229 13.4094C0.546889 13.4714 1.12816 13.5374 1.55867 13.5832C1.79209 13.608 2.01257 13.6298 2.17442 13.6455C2.25545 13.6533 2.32202 13.6597 2.36848 13.664C2.39171 13.6662 2.40992 13.6679 2.42241 13.669C2.42865 13.6696 2.43347 13.6701 2.43676 13.6704C2.43841 13.6705 2.43968 13.6706 2.44056 13.6707C2.44099 13.6708 2.44134 13.6708 2.44158 13.6708C2.4417 13.6708 2.4418 13.6708 2.44187 13.6708C2.4419 13.6708 2.44194 13.6708 2.44195 13.6708C2.44198 13.6708 2.44201 13.6708 2.53309 12.675ZM0.763253 11.4694C0.810761 11.4822 0.854678 11.5058 0.891591 11.5384L-0.430852 13.0387C-0.237063 13.2095 -0.00649742 13.3334 0.242924 13.4006L0.763253 11.4694ZM0.891591 11.5384C0.928503 11.5709 0.957415 11.6115 0.976081 11.657L-0.874423 12.4157C-0.776429 12.6547 -0.62464 12.8679 -0.430852 13.0387L0.891591 11.5384ZM0.976081 11.657C0.994746 11.7025 1.00266 11.7518 0.999213 11.8008L-0.995867 11.6607C-1.01397 11.9183 -0.972417 12.1767 -0.874423 12.4157L0.976081 11.657ZM0.999213 11.8008C0.995764 11.8499 0.981042 11.8976 0.956194 11.94L-0.770017 10.93C-0.900473 11.1529 -0.977759 11.403 -0.995867 11.6607L0.999213 11.8008ZM0.956794 11.939C3.53119 7.52721 7.13296 3.80239 11.4558 1.08129L10.3904 -0.611294C5.79496 2.28137 1.9661 6.24105 -0.770618 10.931L0.956794 11.939ZM11.9231 0.235V0.225H9.92309V0.235H11.9231ZM33.3831 8.105H30.2331V10.105H33.3831V8.105ZM30.2331 8.105C30.0049 8.105 29.7387 8.1031 29.5144 8.13153C29.269 8.16263 28.9182 8.24564 28.619 8.53505C28.3435 8.80156 28.2339 9.12944 28.1754 9.34483C28.1152 9.56645 28.0674 9.84298 28.0183 10.1212L29.9879 10.4688C30.0146 10.3176 30.036 10.1965 30.0561 10.0926C30.0764 9.9882 30.0921 9.91818 30.1054 9.86923C30.1191 9.81909 30.1241 9.81395 30.1154 9.83194C30.1045 9.85423 30.0732 9.91096 30.0097 9.97245C29.8643 10.1131 29.7178 10.1218 29.7658 10.1157C29.7898 10.1126 29.8354 10.109 29.9197 10.107C30.0034 10.1051 30.1021 10.105 30.2331 10.105V8.105ZM28.02 10.1117C27.9679 10.3913 27.9168 10.6663 27.8961 10.8927C27.8789 11.0811 27.8516 11.4778 28.0666 11.8488C28.3306 12.3045 28.7697 12.4329 29.0169 12.4757C29.2467 12.5154 29.5144 12.515 29.7231 12.515V10.515C29.6072 10.515 29.5222 10.5143 29.4543 10.5117C29.4216 10.5105 29.3976 10.5089 29.3802 10.5074C29.3626 10.5058 29.3561 10.5047 29.3577 10.5049C29.3592 10.5052 29.3743 10.5078 29.3988 10.5155C29.4236 10.5233 29.4626 10.5376 29.5091 10.5632C29.5568 10.5893 29.6106 10.6261 29.6637 10.6768C29.7173 10.728 29.762 10.7856 29.7971 10.8462C29.8661 10.9653 29.8804 11.065 29.8837 11.0969C29.8868 11.1266 29.8831 11.1264 29.8879 11.0742C29.8923 11.0251 29.9019 10.9544 29.9192 10.8503C29.9363 10.7472 29.9585 10.6266 29.9861 10.4783L28.02 10.1117ZM29.7231 12.515H31.5931V10.515H29.7231V12.515ZM30.608 11.3427L29.548 17.4027L31.5181 17.7473L32.5781 11.6873L30.608 11.3427ZM29.5511 17.3859C29.439 17.9682 29.2765 18.3472 29.0273 18.6338C28.779 18.9192 28.3612 19.2081 27.5653 19.4473L28.1409 21.3627C29.1749 21.0519 29.9672 20.6008 30.5364 19.9462C31.1047 19.2928 31.3672 18.5318 31.515 17.7641L29.5511 17.3859ZM27.5865 19.4412C27.2899 19.5232 26.9624 19.6518 26.7007 19.892C26.389 20.1781 26.2531 20.5446 26.2531 20.905H28.2531C28.2531 20.9657 28.2427 21.0538 28.2015 21.1509C28.1598 21.2493 28.102 21.3205 28.053 21.3655C28.0082 21.4066 27.9791 21.4184 27.9916 21.4124C28.0039 21.4066 28.0423 21.3902 28.1197 21.3688L27.5865 19.4412ZM26.2596 21.0185C26.313 21.4859 26.4481 21.9381 26.6707 22.3556L28.4354 21.4144C28.3381 21.2319 28.2732 21.0241 28.2466 20.7915L26.2596 21.0185ZM26.63 22.2696C26.7834 22.6378 26.955 22.9918 27.1916 23.2523C27.3254 23.3996 27.4949 23.535 27.7099 23.6254C27.9236 23.7151 28.122 23.735 28.2731 23.735V21.735C28.2992 21.735 28.3826 21.7386 28.4847 21.7815C28.5881 21.825 28.6496 21.8829 28.6721 21.9077C28.6884 21.9256 28.6747 21.9156 28.6344 21.8418C28.5954 21.7704 28.5436 21.6623 28.4762 21.5004L26.63 22.2696ZM28.3726 23.73C28.7376 23.6935 29.0915 23.6217 29.4308 23.5312L28.9154 21.5988C28.6547 21.6683 28.4086 21.7165 28.1736 21.74L28.3726 23.73ZM29.4838 23.5155C30.9808 23.0261 32.0742 22.1898 32.8441 21.1128C33.6022 20.0523 34.012 18.8079 34.2376 17.5402L32.2686 17.1898C32.0742 18.2821 31.744 19.2127 31.2171 19.9497C30.702 20.6702 29.9654 21.2539 28.8623 21.6145L29.4838 23.5155ZM34.238 17.5383L35.438 10.7183L33.4682 10.3717L32.2682 17.1917L34.238 17.5383ZM35.4436 10.6826C35.4906 10.3443 35.5373 10.0163 35.548 9.75336C35.5574 9.52451 35.5605 9.0768 35.272 8.68857C34.9534 8.25986 34.4877 8.16721 34.2414 8.13562C33.9871 8.10301 33.6717 8.105 33.3831 8.105V10.105C33.5453 10.105 33.6715 10.1051 33.7787 10.1075C33.8872 10.1101 33.9503 10.1147 33.987 10.1194C34.0267 10.1245 33.9964 10.1251 33.9353 10.0987C33.861 10.0665 33.7548 10 33.6667 9.88143C33.5834 9.76938 33.5593 9.66834 33.5529 9.63239C33.5475 9.60237 33.5524 9.60621 33.5497 9.67164C33.5472 9.73372 33.5394 9.82143 33.5239 9.94967C33.5085 10.0769 33.488 10.2248 33.4626 10.4074L35.4436 10.6826ZM44.0531 8.105C43.7553 8.105 43.4628 8.104 43.2252 8.12571C42.9949 8.14675 42.6437 8.19959 42.3278 8.43216C41.9847 8.68472 41.8433 9.02652 41.7717 9.27057C41.7058 9.49491 41.6639 9.76833 41.6257 10.0066L43.6005 10.3234C43.6223 10.1874 43.6389 10.0842 43.655 9.99687C43.6713 9.9089 43.6829 9.86037 43.6907 9.83381C43.7066 9.77973 43.6765 9.92278 43.5134 10.0428C43.4423 10.0952 43.3816 10.1159 43.3597 10.1222C43.3426 10.1271 43.3513 10.1225 43.4072 10.1174C43.4618 10.1124 43.5383 10.1088 43.6505 10.1069C43.7622 10.105 43.8918 10.105 44.0531 10.105V8.105ZM41.6268 10L40.7068 15.5L42.6794 15.83L43.5994 10.33L41.6268 10ZM40.7059 15.5056C40.5767 16.3052 40.4332 16.7119 40.2667 16.9275C40.1693 17.0536 40.0019 17.205 39.4331 17.205V19.205C40.4442 19.205 41.2769 18.8914 41.8495 18.15C42.353 17.4981 42.5494 16.6348 42.6803 15.8244L40.7059 15.5056ZM39.4331 17.205C38.8359 17.205 38.6893 17.0351 38.6513 16.9816C38.5829 16.8851 38.4829 16.6136 38.5884 16.0061L36.6178 15.6639C36.4733 16.4964 36.5032 17.4099 37.0199 18.1384C37.5669 18.9099 38.4603 19.205 39.4331 19.205V17.205ZM38.5887 16.004L39.4887 10.754L37.5175 10.416L36.6175 15.666L38.5887 16.004ZM39.4891 10.7516C39.549 10.3968 39.6047 10.0571 39.6183 9.77812C39.6304 9.52934 39.6301 9.0704 39.324 8.67643C38.9985 8.25759 38.5328 8.16737 38.2835 8.13596C38.0226 8.1031 37.7003 8.105 37.4031 8.105V10.105C37.569 10.105 37.6994 10.1051 37.8108 10.1076C37.9234 10.1102 37.9917 10.115 38.0336 10.1203C38.0784 10.1259 38.0555 10.1279 38.0015 10.1052C37.9357 10.0776 37.833 10.0172 37.7447 9.90357C37.6595 9.79398 37.6327 9.69241 37.6249 9.65094C37.6184 9.61662 37.6238 9.6173 37.6207 9.68063C37.6177 9.74071 37.6089 9.82794 37.5908 9.95653C37.5728 10.0837 37.5482 10.234 37.5171 10.4184L39.4891 10.7516ZM37.4031 8.105C37.0887 8.105 36.7893 8.10415 36.5478 8.12445C36.3175 8.14379 35.9709 8.19127 35.6558 8.40557C35.3005 8.64719 35.1463 8.98452 35.0674 9.23787C34.9975 9.46236 34.9544 9.7343 34.9167 9.9606L36.8895 10.2894C36.9114 10.1581 36.9277 10.0604 36.9436 9.97809C36.9597 9.89517 36.9706 9.85293 36.9769 9.83276C36.983 9.81316 36.9764 9.84213 36.9455 9.89073C36.9096 9.94711 36.8544 10.0091 36.7804 10.0594C36.7115 10.1062 36.6565 10.1224 36.644 10.1257C36.6351 10.128 36.6522 10.1227 36.7152 10.1174C36.8531 10.1058 37.0524 10.105 37.4031 10.105V8.105ZM34.9171 9.95828L33.9871 15.4583L35.9591 15.7917L36.8891 10.2917L34.9171 9.95828ZM33.9887 15.4489C33.6652 17.2572 34.0561 18.8479 35.0566 19.992C36.0478 21.1256 37.5277 21.695 39.1431 21.695V19.695C37.9885 19.695 37.1033 19.2944 36.5621 18.6755C36.0301 18.0671 35.721 17.1228 35.9575 15.8011L33.9887 15.4489ZM39.1431 21.695C40.8344 21.695 42.2804 21.3152 43.3736 20.3305C44.4571 19.3545 45.0385 17.9233 45.3114 16.1577L43.3348 15.8523C43.0977 17.3867 42.639 18.3005 42.0351 18.8445C41.4408 19.3798 40.5517 19.695 39.1431 19.695V21.695ZM45.3086 16.1747L46.2486 10.7147L44.2776 10.3753L43.3376 15.8353L45.3086 16.1747ZM46.2536 10.6826C46.3017 10.3363 46.3459 9.99806 46.347 9.71636C46.348 9.45306 46.3185 8.99964 45.9868 8.62355C45.6531 8.24513 45.2065 8.16386 44.9571 8.13441C44.6941 8.10333 44.3699 8.105 44.0631 8.105V10.105C44.2325 10.105 44.3672 10.105 44.4829 10.1076C44.5995 10.1101 44.6739 10.1149 44.7225 10.1206C44.7737 10.1266 44.7621 10.1301 44.7196 10.1138C44.668 10.0938 44.5743 10.0456 44.4868 9.94645C44.3998 9.84772 44.3648 9.75049 44.3523 9.70087C44.342 9.66005 44.3472 9.6531 44.347 9.70864C44.3468 9.76142 44.3421 9.8417 44.3291 9.96413C44.3163 10.085 44.2974 10.2292 44.2726 10.4074L46.2536 10.6826ZM49.932 19.1238C50.5727 19.0924 51.1556 18.9292 51.6098 18.6228C52.0607 18.3187 52.4531 17.8128 52.4531 17.155H50.4531C50.4531 16.9572 50.5705 16.9113 50.4914 16.9647C50.4156 17.0158 50.2135 17.1076 49.8341 17.1262L49.932 19.1238ZM52.4531 17.155C52.4531 16.3243 51.8968 15.8549 51.4438 15.6116C51.0324 15.3906 50.4874 15.234 50.0458 15.0988L49.4604 17.0112C49.7147 17.0891 49.9226 17.1516 50.1082 17.2151C50.2942 17.2788 50.4168 17.3301 50.4974 17.3734C50.5801 17.4179 50.5674 17.4271 50.5322 17.3813C50.4813 17.315 50.4531 17.226 50.4531 17.155H52.4531ZM50.0528 15.101C49.081 14.7957 48.322 14.5193 47.7985 14.135C47.3443 13.8018 47.0931 13.411 47.0931 12.755H45.0931C45.0931 14.129 45.7168 15.0882 46.6152 15.7475C47.4441 16.3557 48.5151 16.7143 49.4534 17.009L50.0528 15.101ZM47.0931 12.755C47.0931 11.8533 47.4508 11.2132 48.019 10.7732C48.6151 10.3118 49.5092 10.025 50.6031 10.025V8.025C49.1869 8.025 47.8261 8.39324 46.7947 9.19178C45.7354 10.0118 45.0931 11.2367 45.0931 12.755H47.0931ZM50.6031 10.025C51.5771 10.025 52.5669 10.064 53.5334 10.151L53.7127 8.15903C52.6793 8.06602 51.6291 8.025 50.6031 8.025V10.025ZM53.5062 10.1482C53.5692 10.1556 53.6091 10.1627 53.6332 10.1681C53.6576 10.1737 53.6534 10.1748 53.6323 10.1654C53.6092 10.1551 53.5642 10.1314 53.5137 10.0863C53.461 10.0393 53.4182 9.98309 53.3881 9.92475C53.3328 9.81753 53.349 9.75957 53.3475 9.84484C53.346 9.92635 53.3304 10.0692 53.2825 10.3089L55.2437 10.7011C55.3007 10.4158 55.3426 10.1374 55.3472 9.87985C55.3516 9.62605 55.3221 9.31122 55.1655 9.00775C54.8061 8.31111 54.0833 8.20225 53.7399 8.16185L53.5062 10.1482ZM53.284 10.3018C53.2345 10.5403 53.1923 10.677 53.1617 10.7521C53.1313 10.8264 53.1337 10.7865 53.2026 10.7245C53.2388 10.6918 53.282 10.6635 53.3282 10.6426C53.3726 10.6226 53.4068 10.6153 53.4211 10.6129C53.4336 10.6108 53.4304 10.6125 53.4023 10.6127C53.3738 10.6129 53.3331 10.6115 53.2707 10.6073L53.1354 12.6027C53.4139 12.6216 54.0332 12.668 54.5411 12.2105C54.9736 11.8209 55.1348 11.2256 55.2422 10.7082L53.284 10.3018ZM53.2578 10.6065C52.5767 10.5692 51.5691 10.475 50.4331 10.475V12.475C51.4971 12.475 52.3695 12.5608 53.1484 12.6035L53.2578 10.6065ZM50.4331 10.475C49.6968 10.475 49.0571 10.6076 48.5712 10.9323C48.0423 11.2858 47.7731 11.82 47.7731 12.375H49.7731C49.7731 12.4212 49.7618 12.4762 49.7339 12.5279C49.7057 12.5802 49.6767 12.599 49.6825 12.5952C49.7091 12.5774 49.8994 12.475 50.4331 12.475V10.475ZM47.7731 12.375C47.7731 13.0578 48.14 13.5492 48.6204 13.8709C49.0379 14.1505 49.5967 14.3446 50.1984 14.5165L50.7478 12.5935C50.1594 12.4254 49.8683 12.2995 49.7333 12.2091C49.6786 12.1725 49.6966 12.1717 49.7262 12.2204C49.762 12.2795 49.7731 12.3415 49.7731 12.375H47.7731ZM50.1989 14.5167C51.2661 14.8209 52.0135 15.154 52.4862 15.5537C52.9067 15.9092 53.1331 16.3327 53.1331 16.985H55.1331C55.1331 15.7273 54.6345 14.7508 53.7774 14.0263C52.9727 13.346 51.8901 12.9191 50.7472 12.5933L50.1989 14.5167ZM53.1331 16.985C53.1331 17.8336 52.8313 18.4273 52.3325 18.838C51.8057 19.2717 50.9603 19.5797 49.7632 19.6154L49.8229 21.6146C51.3059 21.5703 52.6304 21.1833 53.6037 20.382C54.6048 19.5577 55.1331 18.3764 55.1331 16.985H53.1331ZM49.7541 19.6158C48.5365 19.6633 47.3166 19.5968 46.1034 19.4249L45.8228 21.4051C47.1496 21.5932 48.4896 21.6667 49.8321 21.6142L49.7541 19.6158ZM46.1143 19.4265C46.0029 19.4095 45.9244 19.3975 45.8583 19.3856C45.827 19.3799 45.804 19.3753 45.7872 19.3714C45.7702 19.3676 45.7634 19.3655 45.7638 19.3656C45.7642 19.3657 45.7764 19.3695 45.7962 19.3784C45.8164 19.3876 45.8475 19.4034 45.884 19.4286C45.9213 19.4543 45.9624 19.4884 46.0024 19.5324C46.0427 19.5768 46.0763 19.625 46.1029 19.6746C46.1557 19.7729 46.168 19.8524 46.171 19.878C46.1736 19.9007 46.1703 19.8951 46.1743 19.842C46.178 19.7911 46.1866 19.7182 46.2028 19.6123C46.2188 19.5075 46.2403 19.3832 46.2675 19.2311L44.2987 18.8789C44.2454 19.1771 44.1972 19.459 44.1797 19.6942C44.1641 19.9052 44.1529 20.2704 44.3407 20.6204C44.5628 21.0342 44.93 21.2009 45.1708 21.2757C45.3807 21.3408 45.6338 21.3763 45.8119 21.4035L46.1143 19.4265ZM46.2653 19.2425C46.2923 19.1015 46.3139 18.9872 46.3342 18.8867C46.3545 18.7861 46.3705 18.7146 46.3845 18.6614C46.3988 18.6068 46.4059 18.5913 46.4033 18.5973C46.4001 18.6046 46.3782 18.6545 46.3246 18.7165C46.2655 18.7849 46.1885 18.8441 46.1016 18.8845C46.0219 18.9216 45.9612 18.9301 45.9454 18.9319C45.932 18.9335 45.942 18.9311 45.9927 18.9333C46.0422 18.9354 46.1086 18.9407 46.2048 18.9502L46.4014 16.9598C46.2115 16.9411 45.9566 16.9175 45.7176 16.9449C45.4279 16.9782 45.0836 17.0938 44.8116 17.4085C44.5894 17.6655 44.4989 17.9672 44.4498 18.1542C44.3968 18.3567 44.3498 18.611 44.3008 18.8675L46.2653 19.2425ZM46.177 18.947C47.413 19.1041 48.664 19.1558 49.8983 19.1247L49.8479 17.1253C48.7022 17.1542 47.5532 17.1059 46.4292 16.963L46.177 18.947ZM63.7831 8.105H56.6031V10.105H63.7831V8.105ZM56.6031 8.105C56.3757 8.105 56.1071 8.10298 55.8802 8.13267C55.6286 8.1656 55.2767 8.25338 54.9789 8.54879C54.7087 8.8168 54.6 9.14475 54.541 9.36234C54.4799 9.58782 54.4304 9.87007 54.3787 10.1589L56.3475 10.5111C56.3754 10.3549 56.3979 10.2292 56.4191 10.1211C56.4403 10.0126 56.4571 9.93835 56.4714 9.88548C56.4861 9.83135 56.4923 9.82201 56.4856 9.83612C56.477 9.85412 56.4482 9.90832 56.3873 9.96872C56.2445 10.1104 56.0976 10.1213 56.1397 10.1158C56.1622 10.1128 56.2066 10.1092 56.2905 10.1071C56.3738 10.1051 56.472 10.105 56.6031 10.105V8.105ZM54.3774 10.1667C54.3266 10.464 54.2803 10.7478 54.2654 10.983C54.2529 11.1808 54.2391 11.5811 54.4711 11.9468C54.7502 12.3869 55.1884 12.4987 55.4239 12.5344C55.6431 12.5677 55.9037 12.565 56.0931 12.565V10.565C55.9777 10.565 55.8948 10.5649 55.8255 10.563C55.7923 10.5621 55.7678 10.5608 55.7497 10.5595C55.7313 10.5582 55.7238 10.5571 55.7242 10.5571C55.7243 10.5571 55.7381 10.5592 55.7611 10.5657C55.7843 10.5723 55.8219 10.585 55.8674 10.608C55.914 10.6316 55.9676 10.6655 56.0215 10.7132C56.0759 10.7613 56.1226 10.8165 56.1601 10.8757C56.2343 10.9927 56.2529 11.093 56.2576 11.1275C56.2621 11.1593 56.2581 11.1607 56.2614 11.1092C56.2645 11.0608 56.2722 10.9895 56.2874 10.8839C56.3025 10.7795 56.3228 10.6555 56.3488 10.5033L54.3774 10.1667ZM56.0931 12.565H58.4331V10.565H56.0931V12.565ZM57.4479 11.3937L56.1279 18.9837L58.0983 19.3263L59.4183 11.7363L57.4479 11.3937ZM56.1282 18.982C56.0659 19.3366 56.0079 19.6765 55.9926 19.9559C55.9789 20.2045 55.9764 20.6668 56.2847 21.0636C56.6112 21.4838 57.0795 21.5731 57.3279 21.6041C57.5895 21.6369 57.9132 21.635 58.2131 21.635V19.635C58.0459 19.635 57.9144 19.6349 57.8019 19.6324C57.6883 19.6298 57.619 19.625 57.5761 19.6196C57.5303 19.6139 57.5525 19.6118 57.606 19.6341C57.6712 19.6614 57.7748 19.7217 57.864 19.8364C57.9502 19.9473 57.9772 20.0505 57.985 20.0932C57.9915 20.1285 57.9861 20.1285 57.9896 20.0653C57.9928 20.0055 58.0022 19.9185 58.0212 19.7899C58.04 19.6628 58.0656 19.5125 58.098 19.328L56.1282 18.982ZM58.2131 21.635C58.5038 21.635 58.7929 21.636 59.0301 21.6143C59.262 21.593 59.606 21.5401 59.919 21.3173C60.2604 21.0745 60.4126 20.743 60.4928 20.4887C60.5662 20.2561 60.6109 19.98 60.6505 19.7334L58.6757 19.4166C58.6545 19.5489 58.6376 19.6501 58.6213 19.7335C58.6049 19.8177 58.5929 19.8635 58.5855 19.8869C58.5717 19.9308 58.6045 19.798 58.7597 19.6877C58.8865 19.5974 58.9773 19.6107 58.8476 19.6226C58.7931 19.6276 58.7174 19.6312 58.6072 19.6331C58.4975 19.635 58.3706 19.635 58.2131 19.635V21.635ZM60.6489 19.7426L62.0089 11.7426L60.0372 11.4074L58.6772 19.4074L60.6489 19.7426ZM61.0231 12.575H63.2831V10.575H61.0231V12.575ZM63.2831 12.575C63.5079 12.575 63.7748 12.577 64.0004 12.5475C64.251 12.5146 64.6016 12.427 64.8986 12.1325C65.1677 11.8655 65.2762 11.5391 65.335 11.3231C65.396 11.0991 65.4456 10.8189 65.4972 10.5325L63.529 10.1775C63.501 10.3324 63.4785 10.4571 63.4574 10.5642C63.4362 10.6718 63.4195 10.7453 63.4053 10.7976C63.3907 10.8511 63.3846 10.86 63.3914 10.8456C63.4002 10.8274 63.4291 10.773 63.4901 10.7125C63.6333 10.5705 63.7808 10.5591 63.7405 10.5644C63.7187 10.5673 63.6752 10.5709 63.5924 10.5729C63.5101 10.5749 63.413 10.575 63.2831 10.575V12.575ZM65.4988 10.5233C65.5484 10.2326 65.5967 9.95188 65.6151 9.72494C65.6301 9.54073 65.6567 9.13591 65.4325 8.76324C65.1551 8.30215 64.7004 8.19015 64.467 8.15523C64.247 8.1223 63.9819 8.125 63.7831 8.125V10.125C63.9034 10.125 63.9905 10.1251 64.0631 10.127C64.0978 10.128 64.1237 10.1292 64.143 10.1306C64.1525 10.1313 64.1594 10.1319 64.1643 10.1324C64.1692 10.1329 64.1713 10.1332 64.171 10.1332C64.1708 10.1332 64.1674 10.1327 64.1614 10.1314C64.1555 10.1302 64.146 10.128 64.1338 10.1246C64.11 10.1178 64.0707 10.1047 64.023 10.0803C63.9741 10.0553 63.9177 10.0191 63.8614 9.96795C63.8044 9.91616 63.7565 9.85706 63.7187 9.79427C63.6446 9.67115 63.6292 9.56721 63.6257 9.53583C63.6225 9.50639 63.6262 9.50755 63.6217 9.56287C63.6175 9.61486 63.6083 9.68901 63.5917 9.79778C63.5752 9.90552 63.5538 10.0315 63.5273 10.1867L65.4988 10.5233ZM76.4631 12.535C76.6904 12.535 76.9591 12.537 77.1859 12.5073C77.4371 12.4744 77.7909 12.3864 78.0889 12.0884C78.3593 11.818 78.4657 11.4878 78.5229 11.2703C78.5822 11.0446 78.6295 10.7621 78.6788 10.4733L76.7073 10.1367C76.6807 10.2928 76.6592 10.4186 76.6389 10.5266C76.6186 10.6351 76.6024 10.7092 76.5886 10.7619C76.5744 10.8158 76.5684 10.8247 76.5753 10.8099C76.5841 10.7912 76.6131 10.7358 76.6747 10.6741C76.8191 10.5298 76.9684 10.5187 76.9262 10.5243C76.9038 10.5272 76.8595 10.5308 76.7757 10.5329C76.6924 10.5349 76.5942 10.535 76.4631 10.535V12.535ZM78.6772 10.4825C78.7292 10.1944 78.7798 9.9153 78.8001 9.68949C78.8166 9.50742 78.8474 9.1 78.6224 8.72404C78.3446 8.25964 77.886 8.14912 77.6559 8.11492C77.4366 8.08234 77.1721 8.085 76.9731 8.085V10.085C77.0934 10.085 77.1806 10.0851 77.2532 10.087C77.2881 10.088 77.3141 10.0892 77.3335 10.0906C77.343 10.0912 77.35 10.0919 77.355 10.0924C77.3599 10.0929 77.3621 10.0932 77.3619 10.0932C77.3617 10.0932 77.3584 10.0927 77.3525 10.0915C77.3465 10.0902 77.3372 10.0881 77.325 10.0847C77.3013 10.078 77.2619 10.0649 77.2139 10.0405C77.1648 10.0155 77.1078 9.97911 77.0508 9.92737C76.9931 9.87497 76.9445 9.81498 76.9062 9.75096C76.8311 9.62538 76.8159 9.51905 76.8125 9.48623C76.8093 9.45541 76.8131 9.45539 76.8082 9.50989C76.8036 9.56098 76.7939 9.63419 76.7764 9.74198C76.7591 9.84872 76.7367 9.9736 76.709 10.1275L78.6772 10.4825ZM76.9731 8.085H71.8231V10.085H76.9731V8.085ZM71.8231 8.085C71.3897 8.085 70.9837 8.08354 70.6584 8.11949C70.3272 8.15609 69.9006 8.24621 69.5418 8.56793C69.1906 8.88283 69.0496 9.29104 68.9691 9.60277C68.8886 9.91423 68.8267 10.316 68.7564 10.7424L70.7298 11.0676C70.8095 10.584 70.8538 10.3033 70.9055 10.1029C70.9572 9.90271 70.9744 9.96967 70.8769 10.0571C70.7718 10.1513 70.6946 10.1277 70.8781 10.1074C71.0674 10.0865 71.3415 10.085 71.8231 10.085V8.085ZM68.7576 10.735L67.4377 18.385L69.4085 18.725L70.7285 11.075L68.7576 10.735ZM67.4372 18.3874C67.3554 18.8688 67.2821 19.3061 67.2629 19.6563C67.2453 19.9752 67.2489 20.4908 67.5877 20.9225C67.943 21.3751 68.4586 21.478 68.7729 21.5164C69.1038 21.5568 69.5228 21.555 69.9531 21.555V19.555C69.4684 19.555 69.1961 19.5532 69.0155 19.5311C68.8182 19.507 69.0019 19.4849 69.1609 19.6875C69.3035 19.8692 69.2465 20.0098 69.2599 19.7662C69.2715 19.5539 69.3208 19.2412 69.4089 18.7226L67.4372 18.3874ZM69.9531 21.555H74.9731V19.555H69.9531V21.555ZM74.9731 21.555C75.2131 21.555 75.4856 21.5569 75.712 21.5284C75.9587 21.4974 76.3201 21.4134 76.6219 21.1091C76.8941 20.8347 76.9943 20.4989 77.0461 20.2955C77.1001 20.0835 77.1471 19.806 77.1967 19.5353L75.2295 19.1747C75.2004 19.3332 75.1792 19.4534 75.158 19.5648C75.1373 19.6743 75.1216 19.7483 75.1079 19.802C75.0939 19.8571 75.0884 19.8647 75.0958 19.8484C75.1052 19.8277 75.1359 19.7673 75.2018 19.7009C75.3548 19.5466 75.5143 19.5376 75.4626 19.5441C75.4375 19.5472 75.3898 19.5509 75.3015 19.5529C75.2139 19.5549 75.1103 19.555 74.9731 19.555V21.555ZM77.199 19.5221C77.2461 19.2443 77.2931 18.9702 77.311 18.7464C77.3259 18.5601 77.3494 18.1676 77.1371 17.8012C76.8744 17.3477 76.4386 17.2179 76.1889 17.1745C75.9592 17.1345 75.6915 17.135 75.4831 17.135V19.135C75.599 19.135 75.6838 19.1357 75.7513 19.1383C75.784 19.1395 75.8077 19.1411 75.8248 19.1426C75.8421 19.1441 75.8483 19.1453 75.8464 19.1449C75.8446 19.1446 75.829 19.1419 75.8041 19.134C75.7789 19.1261 75.7396 19.1115 75.6929 19.0857C75.645 19.0593 75.5913 19.0223 75.5386 18.9717C75.4853 18.9207 75.4412 18.8635 75.4066 18.8038C75.3388 18.6868 75.3245 18.5893 75.3212 18.5595C75.3181 18.5317 75.3216 18.5334 75.3174 18.5867C75.3133 18.637 75.3046 18.7086 75.2886 18.8136C75.2728 18.9176 75.2524 19.0387 75.2272 19.1879L77.199 19.5221ZM75.4831 17.135H71.1531V19.135H75.4831V17.135ZM72.1414 18.2877L72.4814 16.0877L70.5048 15.7823L70.1648 17.9823L72.1414 18.2877ZM71.4931 16.935H75.1131V14.935H71.4931V16.935ZM75.1131 16.935C75.3283 16.935 75.5861 16.9369 75.8036 16.9091C76.0415 16.8786 76.394 16.7958 76.6902 16.4996C76.9614 16.2284 77.0608 15.8979 77.1112 15.6908C77.1637 15.4756 77.2026 15.208 77.2422 14.9425L75.264 14.6475C75.2424 14.7925 75.2251 14.908 75.2087 15.0071C75.1921 15.1067 75.179 15.1723 75.1681 15.2173C75.1568 15.2637 75.1532 15.2646 75.1634 15.2422C75.1756 15.2154 75.2086 15.1528 75.276 15.0854C75.3466 15.0147 75.4234 14.9704 75.4855 14.9458C75.5391 14.9244 75.5691 14.9228 75.5495 14.9253C75.5299 14.9278 75.4891 14.9312 75.4097 14.9331C75.3309 14.9349 75.2379 14.935 75.1131 14.935V16.935ZM77.2423 14.9412C77.281 14.6798 77.3257 14.3878 77.3305 14.1437C77.3352 13.9092 77.3149 13.4576 76.9673 13.0858C76.6393 12.735 76.2082 12.6631 75.9814 12.6362C75.728 12.6061 75.417 12.605 75.1031 12.605V14.605C75.2678 14.605 75.4005 14.6057 75.512 14.6086C75.6249 14.6116 75.698 14.6166 75.7457 14.6222C75.7683 14.6249 75.7788 14.627 75.7804 14.6274C75.7821 14.6278 75.7696 14.6252 75.7473 14.6171C75.7007 14.6 75.6023 14.5543 75.5064 14.4517C75.4597 14.4018 75.4225 14.3477 75.3945 14.2937C75.3671 14.2408 75.3516 14.1941 75.3429 14.16C75.3344 14.1266 75.332 14.1036 75.3313 14.0957C75.3306 14.0878 75.3312 14.0895 75.3309 14.1041C75.3303 14.1365 75.3262 14.1933 75.3141 14.2914C75.3022 14.3883 75.2855 14.5022 75.2638 14.6488L77.2423 14.9412ZM75.1031 12.605H71.9131V14.605H75.1031V12.605ZM72.8991 13.7717L73.2491 11.7017L71.2771 11.3683L70.9271 13.4383L72.8991 13.7717ZM72.2631 12.535H76.4631V10.535H72.2631V12.535ZM82.8029 15.9999L84.4629 12.3599L82.6432 11.5301L80.9832 15.1701L82.8029 15.9999ZM84.4706 12.3426C84.4876 12.3035 84.4992 12.2767 84.5091 12.2545C84.5192 12.2321 84.5226 12.2254 84.522 12.2267C84.5217 12.2272 84.51 12.2504 84.4873 12.2836C84.4636 12.3182 84.4209 12.374 84.3547 12.4323C84.2847 12.4941 84.2036 12.5454 84.1152 12.5826C84.0311 12.618 83.9597 12.6324 83.9166 12.6388C83.895 12.642 83.8782 12.6435 83.8683 12.6443C83.8584 12.645 83.8524 12.6452 83.8523 12.6452C83.8522 12.6452 83.8548 12.6451 83.8624 12.6451C83.8702 12.645 83.8792 12.645 83.8931 12.645V10.645C83.8698 10.645 83.7443 10.6425 83.6227 10.6605C83.4543 10.6856 83.2338 10.7541 83.0315 10.9327C82.8652 11.0794 82.7774 11.2454 82.7411 11.3164C82.7016 11.3937 82.6627 11.4848 82.6355 11.5474L84.4706 12.3426ZM83.8931 12.645C83.907 12.645 83.9156 12.645 83.9229 12.6451C83.9299 12.6451 83.9314 12.6452 83.9296 12.6451C83.928 12.6451 83.9192 12.6448 83.9059 12.6436C83.8927 12.6425 83.8706 12.6402 83.8426 12.6353C83.7878 12.6257 83.6911 12.6029 83.5815 12.544C83.464 12.4809 83.3648 12.3944 83.2887 12.2949C83.2186 12.2032 83.1829 12.1198 83.1662 12.0745C83.1497 12.03 83.1435 11.9997 83.1434 11.9993C83.1429 11.9973 83.1446 12.0047 83.1487 12.0304C83.1527 12.0556 83.1572 12.0862 83.1637 12.1305L85.1424 11.8395C85.1321 11.7689 85.1174 11.6657 85.0984 11.5776C85.0837 11.5093 85.0371 11.2888 84.8775 11.0801C84.6657 10.8032 84.3857 10.7 84.1879 10.6653C84.0516 10.6414 83.9091 10.645 83.8931 10.645V12.645ZM83.1626 12.1226L83.6626 15.7226L85.6436 15.4474L85.1436 11.8474L83.1626 12.1226ZM84.6531 14.585H81.8931V16.585H84.6531V14.585ZM87.3795 10.3406C87.3247 10.0117 87.2677 9.6539 87.1734 9.36355C87.0664 9.03409 86.8717 8.65784 86.4592 8.39846C86.1 8.17259 85.6935 8.11548 85.3688 8.09046C85.0292 8.06429 84.5989 8.065 84.1031 8.065V10.065C84.6323 10.065 84.9707 10.0657 85.2152 10.0845C85.4745 10.1045 85.4675 10.1374 85.3945 10.0915C85.2683 10.0122 85.2467 9.90591 85.2712 9.98145C85.3085 10.0961 85.3415 10.2783 85.4067 10.6694L87.3795 10.3406ZM84.1031 8.065C83.64 8.065 83.2442 8.06445 82.9281 8.08589C82.6151 8.10711 82.2658 8.15465 81.937 8.31566C81.5752 8.49287 81.3419 8.75424 81.169 9.01611C81.0178 9.24512 80.8754 9.53655 80.7402 9.80479L82.526 10.7052C82.6908 10.3784 82.7684 10.2236 82.8381 10.118C82.8862 10.0451 82.8748 10.0834 82.8166 10.1118C82.7916 10.1241 82.8279 10.0973 83.0634 10.0813C83.2957 10.0655 83.6111 10.065 84.1031 10.065V8.065ZM80.7321 9.82115L76.4321 18.7512L78.2341 19.6188L82.5341 10.6888L80.7321 9.82115ZM76.4387 18.7378C76.2829 19.0493 76.1302 19.3739 76.0492 19.6696C75.9742 19.9434 75.8777 20.4901 76.2582 20.9721C76.5923 21.3954 77.0919 21.489 77.3435 21.5249C77.646 21.5682 78.0148 21.575 78.4031 21.575V19.575C78.2121 19.575 78.0533 19.573 77.9199 19.5677C77.7849 19.5624 77.6909 19.5543 77.6264 19.5451C77.5952 19.5406 77.5768 19.5367 77.5684 19.5347C77.5597 19.5325 77.567 19.5337 77.5851 19.5411C77.62 19.5553 77.728 19.6062 77.828 19.7329C77.8778 19.7959 77.9158 19.8658 77.9414 19.9374C77.9664 20.0076 77.9758 20.069 77.9788 20.1142C77.9816 20.1584 77.9783 20.1887 77.9767 20.2005C77.9751 20.2123 77.9742 20.2124 77.9782 20.1979C77.9869 20.1661 78.0076 20.1052 78.0517 20.0033C78.0948 19.9036 78.1524 19.7824 78.2275 19.6322L76.4387 18.7378ZM78.4031 21.575C78.693 21.575 78.9829 21.5761 79.2252 21.5525C79.4811 21.5274 79.7959 21.4669 80.0977 21.2704C80.3987 21.0743 80.5815 20.8112 80.7083 20.5881C80.8288 20.3761 80.9465 20.1103 81.0659 19.8434L79.2403 19.0266C79.1047 19.3297 79.0312 19.4914 78.9694 19.6C78.914 19.6975 78.9238 19.6482 79.006 19.5946C79.089 19.5406 79.1394 19.5513 79.0307 19.5619C78.9083 19.5739 78.7332 19.575 78.4031 19.575V21.575ZM81.0691 19.8361L81.7391 18.3061L79.9071 17.5039L79.2371 19.0339L81.0691 19.8361ZM80.8231 18.905H84.9931V16.905H80.8231V18.905ZM84.0024 18.041L84.2124 19.571L86.1938 19.299L85.9838 17.769L84.0024 18.041ZM84.2153 19.591C84.2576 19.8589 84.3034 20.1443 84.3751 20.3824C84.451 20.6346 84.5945 20.9725 84.9267 21.2267C85.2426 21.4684 85.5943 21.5285 85.8342 21.5523C86.0747 21.5762 86.3664 21.575 86.6531 21.575V19.575C86.4966 19.575 86.3716 19.575 86.2637 19.5729C86.1553 19.5709 86.0826 19.5671 86.0317 19.5621C85.9125 19.5503 86.0123 19.5391 86.142 19.6383C86.2879 19.75 86.3108 19.8742 86.2901 19.8057C86.2803 19.7732 86.2668 19.7179 86.2491 19.6247C86.2315 19.5324 86.2133 19.4213 86.1908 19.279L84.2153 19.591ZM86.6531 21.575C86.9918 21.575 87.3334 21.5716 87.6206 21.5305C87.8965 21.491 88.3268 21.3922 88.6537 21.0305C88.9907 20.6577 89.037 20.2092 89.0354 19.9115C89.0338 19.6106 88.9792 19.2648 88.9175 18.9192L86.9487 19.2708C86.9788 19.4396 87.0009 19.576 87.0156 19.689C87.0304 19.8035 87.0352 19.8768 87.0354 19.9222C87.036 20.0333 87.0092 19.8673 87.17 19.6895C87.2457 19.6057 87.323 19.5657 87.3605 19.5504C87.3912 19.5378 87.3923 19.5428 87.3371 19.5507C87.2839 19.5583 87.2041 19.5652 87.0844 19.5695C86.966 19.5737 86.8255 19.575 86.6531 19.575V21.575ZM88.9176 18.9196L87.3876 10.3296L85.4186 10.6804L86.9486 19.2704L88.9176 18.9196ZM86.4031 9.505H86.3931V11.505H86.4031V9.505ZM96.5731 8.105H89.3531V10.105H96.5731V8.105ZM89.3531 8.105C89.1258 8.105 88.8571 8.10298 88.6302 8.13269C88.3791 8.16559 88.0253 8.25356 87.7272 8.55164C87.4569 8.82196 87.3505 9.1522 87.2933 9.36967C87.2339 9.59544 87.1866 9.87795 87.1373 10.1667L89.1088 10.5033C89.1355 10.3472 89.157 10.2214 89.1772 10.1134C89.1976 10.0049 89.2137 9.93083 89.2276 9.87814C89.2418 9.82418 89.2478 9.81533 89.2409 9.83011C89.2321 9.84884 89.2031 9.90423 89.1414 9.96586C88.9971 10.1102 88.8477 10.1213 88.89 10.1157C88.9124 10.1128 88.9567 10.1092 89.0405 10.1071C89.1238 10.1051 89.222 10.105 89.3531 10.105V8.105ZM87.1373 10.1667C87.0868 10.4626 87.0402 10.745 87.0242 10.9776C87.0109 11.1712 86.9934 11.5704 87.2199 11.9369C87.4962 12.3841 87.9378 12.4981 88.1744 12.5343C88.3934 12.5678 88.6542 12.565 88.8431 12.565V10.565C88.7277 10.565 88.645 10.5649 88.576 10.563C88.543 10.5621 88.5188 10.5608 88.501 10.5595C88.4829 10.5582 88.4759 10.5571 88.4768 10.5573C88.4776 10.5574 88.4921 10.5596 88.516 10.5665C88.5402 10.5734 88.5789 10.5866 88.6255 10.6105C88.6733 10.6351 88.728 10.6702 88.7825 10.7193C88.8375 10.769 88.8842 10.8255 88.9213 10.8856C88.9944 11.0039 89.0116 11.1043 89.0158 11.137C89.0197 11.1674 89.0159 11.1674 89.0195 11.1146C89.0229 11.0649 89.031 10.9926 89.0466 10.8861C89.0621 10.7808 89.0827 10.6562 89.1088 10.5033L87.1373 10.1667ZM88.8431 12.565H91.1831V10.565H88.8431V12.565ZM90.1979 11.3937L88.8779 18.9837L90.8483 19.3263L92.1683 11.7363L90.1979 11.3937ZM88.8771 18.9884C88.8174 19.3418 88.7612 19.6808 88.7467 19.9581C88.7337 20.2039 88.7309 20.6643 89.0359 21.0602C89.3613 21.4827 89.83 21.5728 90.0787 21.6041C90.34 21.6369 90.6634 21.635 90.9631 21.635V19.635C90.7959 19.635 90.6645 19.6349 90.5524 19.6324C90.439 19.6298 90.3702 19.625 90.3281 19.6197C90.2828 19.614 90.3062 19.6121 90.3608 19.635C90.4275 19.663 90.5314 19.7244 90.6203 19.8398C90.7059 19.9508 90.7322 20.0534 90.7397 20.0945C90.7459 20.1284 90.7405 20.1273 90.7439 20.0631C90.7471 20.0023 90.7563 19.9145 90.7748 19.7852C90.7931 19.6574 90.8179 19.5066 90.8491 19.3216L88.8771 18.9884ZM90.9631 21.635C91.2538 21.635 91.543 21.636 91.7801 21.6143C92.012 21.593 92.356 21.5401 92.669 21.3173C93.0104 21.0745 93.1626 20.743 93.2428 20.4887C93.3162 20.2561 93.3609 19.98 93.4005 19.7334L91.4257 19.4166C91.4045 19.5489 91.3876 19.6501 91.3713 19.7335C91.3549 19.8177 91.3429 19.8635 91.3355 19.8869C91.3217 19.9308 91.3545 19.798 91.5097 19.6877C91.6365 19.5974 91.7273 19.6107 91.5976 19.6226C91.5431 19.6276 91.4674 19.6312 91.3572 19.6331C91.2475 19.635 91.1206 19.635 90.9631 19.635V21.635ZM93.3987 19.7438L94.7687 11.7438L92.7974 11.4062L91.4274 19.4062L93.3987 19.7438ZM93.7831 12.575H96.0331V10.575H93.7831V12.575ZM96.0331 12.575C96.2606 12.575 96.5287 12.577 96.7549 12.5476C97.0046 12.5152 97.3577 12.4284 97.6561 12.1325C97.9277 11.8631 98.0349 11.5334 98.0924 11.3165C98.1519 11.0918 98.1993 10.8108 98.2486 10.5246L96.2776 10.1854C96.2509 10.3403 96.2294 10.4648 96.2092 10.5718C96.1889 10.6793 96.1728 10.7524 96.1591 10.8041C96.1451 10.8571 96.1393 10.8651 96.1466 10.8495C96.1559 10.8299 96.1855 10.7741 96.2476 10.7125C96.3922 10.5691 96.5409 10.5586 96.4972 10.5643C96.4744 10.5672 96.4298 10.5709 96.3459 10.5729C96.2625 10.5749 96.1642 10.575 96.0331 10.575V12.575ZM98.2488 10.5233C98.2966 10.2432 98.3476 9.96627 98.3713 9.75611C98.3894 9.59586 98.4361 9.1972 98.2444 8.82287C97.9856 8.31762 97.5073 8.19296 97.2683 8.15598C97.0492 8.12207 96.7818 8.125 96.5831 8.125V10.125C96.7048 10.125 96.7919 10.1251 96.8636 10.127C96.9374 10.129 96.9626 10.1325 96.9625 10.1325C96.9602 10.1321 96.9421 10.1293 96.9135 10.1207C96.8847 10.1121 96.8388 10.0958 96.7845 10.0659C96.7285 10.0351 96.6663 9.99135 96.6065 9.93085C96.5462 9.86983 96.4991 9.80252 96.4643 9.73463C96.3978 9.60476 96.3907 9.50083 96.3896 9.48082C96.3885 9.46007 96.391 9.46899 96.3839 9.5317C96.3772 9.59091 96.3653 9.67053 96.3463 9.78453C96.3269 9.90101 96.3051 10.0239 96.2773 10.1867L98.2488 10.5233Z" fill="white" mask="url(#path-1-inside-1_129_12307)"/>
</g>
<defs>
<clipPath id="clip0_129_12307">
<rect width="98" height="24" fill="white"/>
</clipPath>
</defs>
</svg>
