<svg width="224" height="260" viewBox="0 0 224 260" fill="none" xmlns="http://www.w3.org/2000/svg">
<path d="M192.505 46.6693H165.005V36.0026C165.005 33.1736 164.039 30.4605 162.32 28.4601C160.601 26.4597 158.269 25.3359 155.838 25.3359H64.1712C61.7401 25.3359 59.4085 26.4597 57.6894 28.4601C55.9703 30.4605 55.0046 33.1736 55.0046 36.0026V46.6693H27.5046C25.0734 46.6693 22.7418 47.7931 21.0227 49.7935C19.3037 51.7939 18.3379 54.507 18.3379 57.3359V89.3359C18.3379 100.652 22.201 111.504 29.0773 119.506C35.9536 127.507 45.28 132.003 55.0046 132.003H69.1212C77.4128 142.767 88.5918 149.948 100.838 152.376V174.669H91.6712C84.3778 174.669 77.383 178.041 72.2258 184.042C67.0685 190.043 64.1712 198.182 64.1712 206.669V228.003C64.1712 230.832 65.137 233.545 66.8561 235.545C68.5752 237.545 70.9067 238.669 73.3379 238.669H146.671C149.102 238.669 151.434 237.545 153.153 235.545C154.872 233.545 155.838 230.832 155.838 228.003V206.669C155.838 198.182 152.941 190.043 147.783 184.042C142.626 178.041 135.631 174.669 128.338 174.669H119.171V152.376C131.417 149.948 142.596 142.767 150.888 132.003H165.005C174.729 132.003 184.055 127.507 190.932 119.506C197.808 111.504 201.671 100.652 201.671 89.3359V57.3359C201.671 54.507 200.705 51.7939 198.986 49.7935C197.267 47.7931 194.936 46.6693 192.505 46.6693ZM55.0046 110.669C50.1423 110.669 45.4791 108.422 42.0409 104.421C38.6028 100.42 36.6712 94.9939 36.6712 89.3359V68.0026H55.0046V89.3359C55.0247 96.6075 56.1097 103.822 58.2129 110.669H55.0046ZM128.338 196.003C130.769 196.003 133.101 197.126 134.82 199.127C136.539 201.127 137.505 203.84 137.505 206.669V217.336H82.5046V206.669C82.5046 203.84 83.4703 201.127 85.1894 199.127C86.9085 197.126 89.2401 196.003 91.6712 196.003H128.338ZM146.671 89.3359C146.671 100.652 142.808 111.504 135.932 119.506C129.055 127.507 119.729 132.003 110.005 132.003C100.28 132.003 90.9536 127.507 84.0773 119.506C77.201 111.504 73.3379 100.652 73.3379 89.3359V46.6693H146.671V89.3359ZM183.338 89.3359C183.338 94.9939 181.406 100.42 177.968 104.421C174.53 108.422 169.867 110.669 165.005 110.669H161.796C163.899 103.822 164.984 96.6075 165.005 89.3359V68.0026H183.338V89.3359Z" fill="#FF8000"/>
<path d="M194.505 44.6693H167.005V34.0026C167.005 31.1736 166.039 28.4605 164.32 26.4601C162.601 24.4597 160.269 23.3359 157.838 23.3359H66.1712C63.7401 23.3359 61.4085 24.4597 59.6894 26.4601C57.9703 28.4605 57.0046 31.1736 57.0046 34.0026V44.6693H29.5046C27.0734 44.6693 24.7418 45.7931 23.0227 47.7935C21.3037 49.7939 20.3379 52.507 20.3379 55.3359V87.3359C20.3379 98.6518 24.201 109.504 31.0773 117.506C37.9536 125.507 47.28 130.003 57.0046 130.003H71.1212C79.4128 140.767 90.5918 147.948 102.838 150.376V172.669H93.6712C86.3778 172.669 79.383 176.041 74.2258 182.042C69.0685 188.043 66.1712 196.182 66.1712 204.669V226.003C66.1712 228.832 67.137 231.545 68.8561 233.545C70.5752 235.545 72.9067 236.669 75.3379 236.669H148.671C151.102 236.669 153.434 235.545 155.153 233.545C156.872 231.545 157.838 228.832 157.838 226.003V204.669C157.838 196.182 154.941 188.043 149.783 182.042C144.626 176.041 137.631 172.669 130.338 172.669H121.171V150.376C133.417 147.948 144.596 140.767 152.888 130.003H167.005C176.729 130.003 186.055 125.507 192.932 117.506C199.808 109.504 203.671 98.6518 203.671 87.3359V55.3359C203.671 52.507 202.705 49.7939 200.986 47.7935C199.267 45.7931 196.936 44.6693 194.505 44.6693ZM57.0046 108.669C52.1423 108.669 47.4791 106.422 44.0409 102.421C40.6028 98.4201 38.6712 92.9939 38.6712 87.3359V66.0026H57.0046V87.3359C57.0247 94.6075 58.1097 101.822 60.2129 108.669H57.0046ZM130.338 194.003C132.769 194.003 135.101 195.126 136.82 197.127C138.539 199.127 139.505 201.84 139.505 204.669V215.336H84.5046V204.669C84.5046 201.84 85.4703 199.127 87.1894 197.127C88.9085 195.126 91.2401 194.003 93.6712 194.003H130.338ZM148.671 87.3359C148.671 98.6518 144.808 109.504 137.932 117.506C131.055 125.507 121.729 130.003 112.005 130.003C102.28 130.003 92.9536 125.507 86.0773 117.506C79.201 109.504 75.3379 98.6518 75.3379 87.3359V44.6693H148.671V87.3359ZM185.338 87.3359C185.338 92.9939 183.406 98.4201 179.968 102.421C176.53 106.422 171.867 108.669 167.005 108.669H163.796C165.899 101.822 166.984 94.6075 167.005 87.3359V66.0026H185.338V87.3359Z" fill="#FF8000"/>
<path d="M196.505 42.6693H169.005V32.0026C169.005 29.1736 168.039 26.4605 166.32 24.4601C164.601 22.4597 162.269 21.3359 159.838 21.3359H68.1712C65.7401 21.3359 63.4085 22.4597 61.6894 24.4601C59.9703 26.4605 59.0046 29.1736 59.0046 32.0026V42.6693H31.5046C29.0734 42.6693 26.7418 43.7931 25.0227 45.7935C23.3037 47.7939 22.3379 50.507 22.3379 53.3359V85.3359C22.3379 96.6518 26.201 107.504 33.0773 115.506C39.9536 123.507 49.28 128.003 59.0046 128.003H73.1212C81.4128 138.767 92.5918 145.948 104.838 148.376V170.669H95.6712C88.3778 170.669 81.383 174.041 76.2258 180.042C71.0685 186.043 68.1712 194.182 68.1712 202.669V224.003C68.1712 226.832 69.137 229.545 70.8561 231.545C72.5752 233.545 74.9067 234.669 77.3379 234.669H150.671C153.102 234.669 155.434 233.545 157.153 231.545C158.872 229.545 159.838 226.832 159.838 224.003V202.669C159.838 194.182 156.941 186.043 151.783 180.042C146.626 174.041 139.631 170.669 132.338 170.669H123.171V148.376C135.417 145.948 146.596 138.767 154.888 128.003H169.005C178.729 128.003 188.055 123.507 194.932 115.506C201.808 107.504 205.671 96.6518 205.671 85.3359V53.3359C205.671 50.507 204.705 47.7939 202.986 45.7935C201.267 43.7931 198.936 42.6693 196.505 42.6693ZM59.0046 106.669C54.1423 106.669 49.4791 104.422 46.0409 100.421C42.6028 96.4201 40.6712 90.9939 40.6712 85.3359V64.0026H59.0046V85.3359C59.0247 92.6075 60.1097 99.8219 62.2129 106.669H59.0046ZM132.338 192.003C134.769 192.003 137.101 193.126 138.82 195.127C140.539 197.127 141.505 199.84 141.505 202.669V213.336H86.5046V202.669C86.5046 199.84 87.4703 197.127 89.1894 195.127C90.9085 193.126 93.2401 192.003 95.6712 192.003H132.338ZM150.671 85.3359C150.671 96.6518 146.808 107.504 139.932 115.506C133.055 123.507 123.729 128.003 114.005 128.003C104.28 128.003 94.9536 123.507 88.0773 115.506C81.201 107.504 77.3379 96.6518 77.3379 85.3359V42.6693H150.671V85.3359ZM187.338 85.3359C187.338 90.9939 185.406 96.4201 181.968 100.421C178.53 104.422 173.867 106.669 169.005 106.669H165.796C167.899 99.8219 168.984 92.6075 169.005 85.3359V64.0026H187.338V85.3359Z" fill="#FFBF7F"/>
</svg>
