<svg width="75" height="75" viewBox="0 0 75 75" fill="none" xmlns="http://www.w3.org/2000/svg">
<g clip-path="url(#clip0_293_15171)">
<path d="M27.5271 39.4457C26.9339 39.4457 26.354 39.6216 25.8607 39.9512C25.3675 40.2807 24.983 40.7492 24.756 41.2973C24.529 41.8453 24.4696 42.4484 24.5853 43.0302C24.7011 43.6121 24.9867 44.1465 25.4062 44.566C25.8257 44.9855 26.3601 45.2711 26.942 45.3868C27.5238 45.5026 28.1269 45.4432 28.6749 45.2162C29.223 44.9891 29.6915 44.6047 30.021 44.1115C30.3506 43.6182 30.5265 43.0383 30.5265 42.4451C30.5265 41.6496 30.2105 40.8867 29.648 40.3242C29.0855 39.7617 28.3226 39.4457 27.5271 39.4457ZM27.5271 26.0083C26.9339 26.0083 26.354 26.1843 25.8607 26.5138C25.3675 26.8434 24.983 27.3119 24.756 27.8599C24.529 28.408 24.4696 29.0111 24.5853 29.5929C24.7011 30.1747 24.9867 30.7092 25.4062 31.1286C25.8257 31.5481 26.3601 31.8338 26.942 31.9495C27.5238 32.0653 28.1269 32.0059 28.6749 31.7788C29.223 31.5518 29.6915 31.1674 30.021 30.6741C30.3506 30.1809 30.5265 29.601 30.5265 29.0077C30.5265 28.2123 30.2105 27.4493 29.648 26.8869C29.0855 26.3244 28.3226 26.0083 27.5271 26.0083ZM37.995 32.0072C37.1995 32.0072 36.4366 32.3232 35.8741 32.8857C35.3116 33.4482 34.9956 34.2111 34.9956 35.0066V38.006C34.9956 38.8015 35.3116 39.5644 35.8741 40.1269C36.4366 40.6894 37.1995 41.0054 37.995 41.0054C38.7905 41.0054 39.5534 40.6894 40.1159 40.1269C40.6784 39.5644 40.9944 38.8015 40.9944 38.006V35.0066C40.9944 34.2111 40.6784 33.4482 40.1159 32.8857C39.5534 32.3232 38.7905 32.0072 37.995 32.0072ZM63.49 27.718C62.4553 27.1227 61.3124 26.7392 60.1281 26.5898C58.9437 26.4405 57.7414 26.5283 56.5913 26.8482C55.3944 27.1688 54.2797 27.7415 53.322 28.5278L18.5289 8.40184C18.0729 8.13859 17.5557 8 17.0292 8C16.5027 8 15.9855 8.13859 15.5295 8.40184C15.0662 8.66227 14.6804 9.04113 14.4116 9.49964C14.1428 9.95815 14.0007 10.4798 13.9998 11.0113V50.5135C12.2297 51.1105 10.695 52.2543 9.61685 53.7799C8.53872 55.3054 7.97291 57.1339 8.001 59.0018C8.00016 61.3473 8.91518 63.6004 10.5511 65.2811C12.1871 66.9619 14.4146 67.9375 16.7593 68H18.4989C28.3272 67.9769 37.9743 65.3536 46.4609 60.3965C54.9475 55.4394 61.9713 48.325 66.8193 39.7756C67.939 37.73 68.2208 35.3296 67.6053 33.0803C66.9898 30.831 65.5251 28.9085 63.52 27.718H63.49ZM19.9986 16.2003L49.6627 33.3269C46.3718 38.2375 41.9722 42.3055 36.8192 45.2025C31.6663 48.0994 25.9043 49.744 19.9986 50.0036V16.2003ZM61.6003 36.8362C57.1476 44.6816 50.6447 51.1681 42.788 55.6011C34.9313 60.034 26.0169 62.2463 16.9992 62.0012C16.2037 62.0012 15.4408 61.6852 14.8783 61.1227C14.3158 60.5602 13.9998 59.7973 13.9998 59.0018C13.9975 58.5999 14.0759 58.2016 14.2305 57.8307C14.3851 57.4597 14.6126 57.1235 14.8996 56.8422C15.4631 56.2991 16.2166 55.9977 16.9992 56.0024H18.5289C26.2305 55.9993 33.7932 53.951 40.4438 50.0671C47.0944 46.1832 52.5943 40.603 56.3814 33.8968C56.5634 33.5678 56.8122 33.2804 57.1118 33.0532C57.4114 32.8259 57.7551 32.6637 58.121 32.577C58.8773 32.3695 59.6849 32.4664 60.3706 32.847C61.0588 33.2169 61.5754 33.8407 61.8107 34.5857C62.046 35.3307 61.9813 36.1382 61.6303 36.8362H61.6003Z" fill="#FFBF7F"/>
</g>
<defs>
<clipPath id="clip0_293_15171">
<rect width="75" height="75" fill="white"/>
</clipPath>
</defs>
</svg>
