<svg width="75" height="75" viewBox="0 0 75 75" fill="none" xmlns="http://www.w3.org/2000/svg">
<path d="M74.7001 17.3243C74.3197 16.4083 73.5917 15.6803 72.6757 15.2999C72.225 15.1078 71.741 15.0059 71.2511 15H52.5065C51.5122 15 50.5587 15.395 49.8556 16.098C49.1526 16.8011 48.7576 17.7546 48.7576 18.7489C48.7576 19.7432 49.1526 20.6967 49.8556 21.3998C50.5587 22.1029 51.5122 22.4978 52.5065 22.4978H62.2162L41.2598 43.4543L28.9259 31.0828C28.5773 30.7315 28.1627 30.4526 27.7059 30.2622C27.249 30.0719 26.759 29.9739 26.2641 29.9739C25.7692 29.9739 25.2792 30.0719 24.8224 30.2622C24.3655 30.4526 23.9509 30.7315 23.6024 31.0828L1.10892 53.5763C0.757542 53.9248 0.478645 54.3395 0.288317 54.7963C0.09799 55.2531 0 55.7431 0 56.238C0 56.7329 0.09799 57.2229 0.288317 57.6798C0.478645 58.1366 0.757542 58.5513 1.10892 58.8998C1.45743 59.2511 1.87207 59.5301 2.32891 59.7204C2.78575 59.9107 3.27575 60.0087 3.77065 60.0087C4.26555 60.0087 4.75555 59.9107 5.21239 59.7204C5.66923 59.5301 6.08387 59.2511 6.43238 58.8998L26.2641 39.0305L38.5981 51.4019C38.9466 51.7533 39.3612 52.0322 39.818 52.2225C40.2749 52.4129 40.7649 52.5109 41.2598 52.5109C41.7547 52.5109 42.2447 52.4129 42.7015 52.2225C43.1584 52.0322 43.573 51.7533 43.9215 51.4019L67.5022 27.7838V37.4935C67.5022 38.4878 67.8971 39.4413 68.6002 40.1444C69.3033 40.8474 70.2568 41.2424 71.2511 41.2424C72.2454 41.2424 73.1989 40.8474 73.902 40.1444C74.605 39.4413 75 38.4878 75 37.4935V18.7489C74.9941 18.259 74.8922 17.775 74.7001 17.3243V17.3243Z" fill="#FFBF7F"/>
</svg>
