<svg width="75" height="75" viewBox="0 0 75 75" fill="none" xmlns="http://www.w3.org/2000/svg">
<g clip-path="url(#clip0_293_15166)">
<path d="M69.667 6.33398H6.33366C5.49381 6.33398 4.68835 6.66761 4.09449 7.26148C3.50062 7.85534 3.16699 8.6608 3.16699 9.50065V22.1673C3.1725 24.1273 3.78411 26.0376 4.91796 27.6364C6.05182 29.2351 7.65242 30.444 9.50033 31.0973V66.5006C9.50033 67.3405 9.83396 68.146 10.4278 68.7398C11.0217 69.3337 11.8271 69.6673 12.667 69.6673H63.3337C64.1735 69.6673 64.979 69.3337 65.5728 68.7398C66.1667 68.146 66.5003 67.3405 66.5003 66.5006V31.0973C68.3482 30.444 69.9488 29.2351 71.0827 27.6364C72.2165 26.0376 72.8281 24.1273 72.8337 22.1673V9.50065C72.8337 8.6608 72.5 7.85534 71.9062 7.26148C71.3123 6.66761 70.5068 6.33398 69.667 6.33398V6.33398ZM47.5003 12.6673H53.8337V22.1673C53.8337 23.0072 53.5 23.8126 52.9062 24.4065C52.3123 25.0004 51.5068 25.334 50.667 25.334C49.8271 25.334 49.0217 25.0004 48.4278 24.4065C47.834 23.8126 47.5003 23.0072 47.5003 22.1673V12.6673ZM34.8337 12.6673H41.167V22.1673C41.167 23.0072 40.8334 23.8126 40.2395 24.4065C39.6456 25.0004 38.8402 25.334 38.0003 25.334C37.1605 25.334 36.355 25.0004 35.7612 24.4065C35.1673 23.8126 34.8337 23.0072 34.8337 22.1673V12.6673ZM22.167 12.6673H28.5003V22.1673C28.5003 23.0072 28.1667 23.8126 27.5728 24.4065C26.979 25.0004 26.1735 25.334 25.3337 25.334C24.4938 25.334 23.6884 25.0004 23.0945 24.4065C22.5006 23.8126 22.167 23.0072 22.167 22.1673V12.6673ZM12.667 25.334C11.8271 25.334 11.0217 25.0004 10.4278 24.4065C9.83396 23.8126 9.50033 23.0072 9.50033 22.1673V12.6673H15.8337V22.1673C15.8337 23.0072 15.5 23.8126 14.9062 24.4065C14.3123 25.0004 13.5068 25.334 12.667 25.334ZM44.3337 63.334H31.667V50.6673C31.667 48.9876 32.3343 47.3767 33.522 46.189C34.7097 45.0012 36.3206 44.334 38.0003 44.334C39.68 44.334 41.2909 45.0012 42.4787 46.189C43.6664 47.3767 44.3337 48.9876 44.3337 50.6673V63.334ZM60.167 63.334H50.667V50.6673C50.667 47.3079 49.3325 44.0861 46.957 41.7106C44.5815 39.3352 41.3597 38.0006 38.0003 38.0006C34.6409 38.0006 31.4191 39.3352 29.0436 41.7106C26.6682 44.0861 25.3337 47.3079 25.3337 50.6673V63.334H15.8337V31.0973C16.9976 30.6653 18.0714 30.021 19.0003 29.1973C20.7421 30.7552 22.9969 31.6164 25.3337 31.6164C27.6704 31.6164 29.9253 30.7552 31.667 29.1973C33.4087 30.7552 35.6635 31.6164 38.0003 31.6164C40.3371 31.6164 42.5919 30.7552 44.3337 29.1973C46.0754 30.7552 48.3302 31.6164 50.667 31.6164C53.0038 31.6164 55.2586 30.7552 57.0003 29.1973C57.9293 30.021 59.003 30.6653 60.167 31.0973V63.334ZM66.5003 22.1673C66.5003 23.0072 66.1667 23.8126 65.5728 24.4065C64.979 25.0004 64.1735 25.334 63.3337 25.334C62.4938 25.334 61.6883 25.0004 61.0945 24.4065C60.5006 23.8126 60.167 23.0072 60.167 22.1673V12.6673H66.5003V22.1673Z" fill="#FFBF7F"/>
</g>
<defs>
<clipPath id="clip0_293_15166">
<rect width="75" height="75" fill="white"/>
</clipPath>
</defs>
</svg>
