<svg width="76" height="76" viewBox="0 0 76 76" fill="none" xmlns="http://www.w3.org/2000/svg">
<path d="M46.43 38.84C48.3289 36.8007 49.3987 34.1263 49.43 31.34C49.43 28.3324 48.2353 25.4481 46.1086 23.3214C43.9819 21.1947 41.0976 20 38.09 20C35.0824 20 32.1981 21.1947 30.0714 23.3214C27.9447 25.4481 26.75 28.3324 26.75 31.34C26.7813 34.1263 27.8511 36.8007 29.75 38.84C27.106 40.1566 24.8307 42.1098 23.1287 44.5239C21.4268 46.938 20.3517 49.7373 20 52.67C19.9125 53.4656 20.1446 54.2635 20.6453 54.888C21.1461 55.5125 21.8744 55.9125 22.67 56C23.4656 56.0875 24.2635 55.8554 24.888 55.3547C25.5125 54.8539 25.9125 54.1257 26 53.33C26.358 50.4234 27.7665 47.7481 29.9603 45.808C32.154 43.8679 34.9814 42.7969 37.91 42.7969C40.8386 42.7969 43.666 43.8679 45.8597 45.808C48.0535 47.7481 49.462 50.4234 49.82 53.33C49.9034 54.0992 50.2809 54.8065 50.8734 55.3041C51.466 55.8016 52.2279 56.0509 53 56H53.33C54.1164 55.9095 54.8352 55.5119 55.3297 54.8938C55.8242 54.2756 56.0543 53.4871 55.97 52.7C55.6444 49.7827 54.6032 46.9911 52.9388 44.5731C51.2745 42.1552 49.0387 40.1858 46.43 38.84V38.84ZM38 36.68C36.9438 36.68 35.9114 36.3668 35.0333 35.78C34.1551 35.1933 33.4707 34.3593 33.0665 33.3835C32.6623 32.4078 32.5566 31.3341 32.7626 30.2982C32.9687 29.2624 33.4772 28.3109 34.2241 27.564C34.9709 26.8172 35.9224 26.3087 36.9582 26.1026C37.9941 25.8966 39.0678 26.0023 40.0435 26.4065C41.0193 26.8107 41.8533 27.4951 42.44 28.3733C43.0268 29.2514 43.34 30.2838 43.34 31.34C43.34 32.7563 42.7774 34.1145 41.7759 35.116C40.7745 36.1174 39.4163 36.68 38 36.68V36.68ZM59 8H17C14.6131 8 12.3239 8.94821 10.636 10.636C8.94821 12.3239 8 14.6131 8 17V59C8 61.3869 8.94821 63.6761 10.636 65.364C12.3239 67.0518 14.6131 68 17 68H59C61.3869 68 63.6761 67.0518 65.364 65.364C67.0518 63.6761 68 61.3869 68 59V17C68 14.6131 67.0518 12.3239 65.364 10.636C63.6761 8.94821 61.3869 8 59 8ZM62 59C62 59.7956 61.6839 60.5587 61.1213 61.1213C60.5587 61.6839 59.7956 62 59 62H17C16.2044 62 15.4413 61.6839 14.8787 61.1213C14.3161 60.5587 14 59.7956 14 59V17C14 16.2044 14.3161 15.4413 14.8787 14.8787C15.4413 14.3161 16.2044 14 17 14H59C59.7956 14 60.5587 14.3161 61.1213 14.8787C61.6839 15.4413 62 16.2044 62 17V59Z" fill="#FFBF7F"/>
</svg>
