<svg width="149" height="169" viewBox="0 0 149 169" fill="none" xmlns="http://www.w3.org/2000/svg">
<path d="M135.74 19.6984H114.307V11.4039C114.307 9.20406 113.554 7.09431 112.215 5.53879C110.875 3.98326 109.058 3.10938 107.163 3.10938H35.7209C33.8262 3.10938 32.009 3.98326 30.6692 5.53879C29.3294 7.09431 28.5768 9.20406 28.5768 11.4039V19.6984H7.14419C5.24943 19.6984 3.43228 20.5723 2.09248 22.1278C0.752689 23.6834 0 25.7931 0 27.993V52.8765C0 61.6759 3.01076 70.1149 8.36994 76.337C13.7291 82.5591 20.9977 86.0547 28.5768 86.0547H39.5788C46.041 94.425 54.7535 100.009 64.2977 101.897V119.233H57.1535C51.4692 119.233 46.0178 121.854 41.9984 126.521C37.979 131.188 35.7209 137.517 35.7209 144.116V160.705C35.7209 162.905 36.4736 165.015 37.8134 166.571C39.1532 168.126 40.9704 169 42.8651 169H100.019C101.913 169 103.731 168.126 105.07 166.571C106.41 165.015 107.163 162.905 107.163 160.705V144.116C107.163 137.517 104.905 131.188 100.885 126.521C96.866 121.854 91.4145 119.233 85.7303 119.233H78.5861V101.897C88.1303 100.009 96.8428 94.425 103.305 86.0547H114.307C121.886 86.0547 129.155 82.5591 134.514 76.337C139.873 70.1149 142.884 61.6759 142.884 52.8765V27.993C142.884 25.7931 142.131 23.6834 140.791 22.1278C139.452 20.5723 137.634 19.6984 135.74 19.6984V19.6984ZM28.5768 69.4656C24.7872 69.4656 21.1529 67.7178 18.4733 64.6068C15.7938 61.4957 14.2884 57.2762 14.2884 52.8765V36.2875H28.5768V52.8765C28.5925 58.531 29.4381 64.141 31.0772 69.4656H28.5768ZM85.7303 135.822C87.625 135.822 89.4422 136.696 90.782 138.251C92.1218 139.807 92.8745 141.917 92.8745 144.116V152.411H50.0093V144.116C50.0093 141.917 50.762 139.807 52.1018 138.251C53.4416 136.696 55.2588 135.822 57.1535 135.822H85.7303ZM100.019 52.8765C100.019 61.6759 97.0079 70.1149 91.6487 76.337C86.2895 82.5591 79.0209 86.0547 71.4419 86.0547C63.8629 86.0547 56.5943 82.5591 51.2351 76.337C45.8759 70.1149 42.8651 61.6759 42.8651 52.8765V19.6984H100.019V52.8765ZM128.595 52.8765C128.595 57.2762 127.09 61.4957 124.41 64.6068C121.731 67.7178 118.097 69.4656 114.307 69.4656H111.807C113.446 64.141 114.291 58.531 114.307 52.8765V36.2875H128.595V52.8765Z" fill="#FF8000"/>
<path d="M137.294 18.1457H115.862V9.85117C115.862 7.65132 115.109 5.54158 113.769 3.98605C112.429 2.43053 110.612 1.55664 108.718 1.55664H37.2756C35.3809 1.55664 33.5637 2.43053 32.2239 3.98605C30.8841 5.54158 30.1314 7.65132 30.1314 9.85117V18.1457H8.69888C6.80412 18.1457 4.98697 19.0196 3.64717 20.5751C2.30738 22.1306 1.55469 24.2404 1.55469 26.4402V51.3238C1.55469 60.1232 4.56544 68.5622 9.92463 74.7843C15.2838 81.0064 22.5524 84.5019 30.1314 84.5019H41.1335C47.5957 92.8723 56.3082 98.4562 65.8524 100.344V117.68H58.7082C53.0239 117.68 47.5725 120.302 43.5531 124.968C39.5337 129.635 37.2756 135.964 37.2756 142.564V159.153C37.2756 161.353 38.0283 163.462 39.3681 165.018C40.7079 166.573 42.5251 167.447 44.4198 167.447H101.573C103.468 167.447 105.285 166.573 106.625 165.018C107.965 163.462 108.718 161.353 108.718 159.153V142.564C108.718 135.964 106.459 129.635 102.44 124.968C98.4207 120.302 92.9692 117.68 87.285 117.68H80.1408V100.344C89.685 98.4562 98.3975 92.8723 104.86 84.5019H115.862C123.441 84.5019 130.709 81.0064 136.069 74.7843C141.428 68.5622 144.438 60.1232 144.438 51.3238V26.4402C144.438 24.2404 143.686 22.1306 142.346 20.5751C141.006 19.0196 139.189 18.1457 137.294 18.1457V18.1457ZM30.1314 67.9129C26.3419 67.9129 22.7076 66.1651 20.028 63.054C17.3484 59.943 15.8431 55.7235 15.8431 51.3238V34.7348H30.1314V51.3238C30.1472 56.9783 30.9928 62.5883 32.6319 67.9129H30.1314ZM87.285 134.269C89.1797 134.269 90.9969 135.143 92.3367 136.699C93.6765 138.254 94.4291 140.364 94.4291 142.564V150.858H51.564V142.564C51.564 140.364 52.3167 138.254 53.6565 136.699C54.9963 135.143 56.8134 134.269 58.7082 134.269H87.285ZM101.573 51.3238C101.573 60.1232 98.5626 68.5622 93.2034 74.7843C87.8442 81.0064 80.5756 84.5019 72.9966 84.5019C65.4175 84.5019 58.1489 81.0064 52.7898 74.7843C47.4306 68.5622 44.4198 60.1232 44.4198 51.3238V18.1457H101.573V51.3238ZM130.15 51.3238C130.15 55.7235 128.645 59.943 125.965 63.054C123.286 66.1651 119.651 67.9129 115.862 67.9129H113.361C115 62.5883 115.846 56.9783 115.862 51.3238V34.7348H130.15V51.3238Z" fill="#FF8000"/>
<path d="M141.401 16.9H119.567V8.45C119.567 6.20892 118.8 4.05963 117.435 2.47495C116.07 0.890265 114.219 0 112.289 0H39.5077C37.5774 0 35.7262 0.890265 34.3613 2.47495C32.9964 4.05963 32.2296 6.20892 32.2296 8.45V16.9H10.3953C8.46501 16.9 6.6138 17.7903 5.24889 19.3749C3.88398 20.9596 3.11719 23.1089 3.11719 25.35V50.7C3.11719 59.6643 6.18438 68.2615 11.644 74.6002C17.1036 80.9389 24.5085 84.5 32.2296 84.5H43.4379C50.0211 93.0273 58.897 98.7159 68.6201 100.639V118.3H61.342C55.5512 118.3 49.9975 120.971 45.9028 125.725C41.8081 130.479 39.5077 136.927 39.5077 143.65V160.55C39.5077 162.791 40.2745 164.94 41.6394 166.525C43.0043 168.11 44.8555 169 46.7858 169H105.011C106.941 169 108.792 168.11 110.157 166.525C111.522 164.94 112.289 162.791 112.289 160.55V143.65C112.289 136.927 109.988 130.479 105.894 125.725C101.799 120.971 96.2452 118.3 90.4544 118.3H83.1763V100.639C92.8994 98.7159 101.775 93.0273 108.358 84.5H119.567C127.288 84.5 134.693 80.9389 140.152 74.6002C145.612 68.2615 148.679 59.6643 148.679 50.7V25.35C148.679 23.1089 147.912 20.9596 146.547 19.3749C145.183 17.7903 143.331 16.9 141.401 16.9V16.9ZM32.2296 67.6C28.369 67.6 24.6666 65.8195 21.9368 62.6501C19.207 59.4807 17.6734 55.1822 17.6734 50.7V33.8H32.2296V50.7C32.2456 56.4604 33.107 62.1756 34.7769 67.6H32.2296ZM90.4544 135.2C92.3846 135.2 94.2358 136.09 95.6008 137.675C96.9657 139.26 97.7325 141.409 97.7325 143.65V152.1H54.0639V143.65C54.0639 141.409 54.8307 139.26 56.1956 137.675C57.5605 136.09 59.4117 135.2 61.342 135.2H90.4544ZM105.011 50.7C105.011 59.6643 101.943 68.2615 96.4837 74.6002C91.0241 80.9389 83.6193 84.5 75.8982 84.5C68.1771 84.5 60.7722 80.9389 55.3126 74.6002C49.853 68.2615 46.7858 59.6643 46.7858 50.7V16.9H105.011V50.7ZM134.123 50.7C134.123 55.1822 132.589 59.4807 129.86 62.6501C127.13 65.8195 123.427 67.6 119.567 67.6H117.019C118.689 62.1756 119.551 56.4604 119.567 50.7V33.8H134.123V50.7Z" fill="#FFBF7F"/>
</svg>
