<svg width="75" height="75" viewBox="0 0 75 75" fill="none" xmlns="http://www.w3.org/2000/svg">
<g clip-path="url(#clip0_293_15164)">
<path d="M75 39.1475C76.2746 39.1475 77.3078 38.1143 77.3078 36.8397C77.3078 35.5652 76.2746 34.532 75 34.532H71.749C70.913 34.0689 69.9344 33.7563 69.0673 33.5291C67.8324 33.2055 66.4443 32.9641 65.1427 32.7852C63.1809 32.5154 61.2774 32.3695 60.1728 32.3148L58.2026 30.8779C57.1728 30.1269 55.7292 30.3529 54.9781 31.3827C54.857 31.5488 54.7612 31.7257 54.6902 31.9088C53.3647 31.7475 51.8648 31.5407 50.3198 31.2938C48.0297 30.9279 45.6754 30.4795 43.6583 29.9699C41.5625 29.4404 40.0899 28.9061 39.3765 28.4586L38.8141 28.1057H38.1501H38.1423L27.3198 16.246H29.0371V13.9383V13.6364V11.3286H26.7293H15.487H12.4433L13.2649 14.2593L16.4404 25.5874L10.4569 19.7101L9.19985 18.4753L7.67756 19.3626L4.64391 21.1309L3.31868 21.9034L3.51783 23.4243L4.2155 28.7527H4.2121V31.0605V33.0195L1.51784 33.3406L-0.516823 33.5831V34.3834C-0.644676 34.4352 -0.778053 34.4941 -0.904114 34.5588C-0.999069 34.6076 -1.28674 34.756 -1.56142 35.0163C-1.68766 35.136 -2.01102 35.4621 -2.18893 35.9993C-2.41886 36.6936 -2.32407 37.5144 -1.81693 38.1681C-1.45186 38.6387 -0.978767 38.9316 -0.516823 39.129V39.6586L1.26133 40.0779C2.06063 40.2664 3.15746 40.4201 4.2121 40.5372V42.4034V44.7112H4.22234L3.51759 50.1276L3.3221 51.6301L4.62295 52.4068L7.65659 54.2182L9.19012 55.1339L10.4611 53.879L16.3717 48.0434L13.2189 59.3817L12.4053 62.3078H15.4424H26.5063H26.8191L27.1207 62.2245L27.433 62.1382L29.1263 61.6705V59.9137V59.6981V58.2504L27.8229 57.6203L27.6444 57.5341L27.2782 57.357L38.0518 45.5737H38.7416L39.3366 45.1588C39.8275 44.8163 41.1422 44.3038 43.2467 43.7528C45.2338 43.2326 47.6143 42.753 49.9552 42.3539C51.673 42.0611 53.3487 41.8152 54.8039 41.6303C54.8287 41.6769 54.8553 41.7231 54.8837 41.7687C55.5574 42.8506 56.9806 43.1816 58.0625 42.5079L59.9959 41.3041C61.5413 41.2912 63.6828 41.1816 65.7797 40.8869C66.981 40.7181 68.2148 40.4821 69.3355 40.1507C70.1502 39.9098 71.0044 39.5903 71.7653 39.1475H75Z" stroke="#FFBF7F" stroke-width="4.61556" stroke-linecap="round"/>
</g>
<defs>
<clipPath id="clip0_293_15164">
<rect width="75" height="75" fill="white"/>
</clipPath>
</defs>
</svg>
